<?xml version="1.0" encoding="UTF-8"?>
<svg version="1.1" xmlns="http://www.w3.org/2000/svg" width="377" height="536">
<path d="M0 0 C7.17142459 7.01521534 10.10066324 16.06882929 10.25 25.9375 C9.92865923 57.6788271 -8.40376246 83.54316498 -30 105 C-30.5377002 105.53496094 -31.07540039 106.06992188 -31.62939453 106.62109375 C-48.51244945 123.20178201 -68.99092363 136.28801133 -90 147 C-88.77925781 146.96519531 -87.55851563 146.93039063 -86.30078125 146.89453125 C-76.56292583 146.70225197 -67.29705991 146.66102297 -58 150 C-57.34 150.66 -56.68 151.32 -56 152 C-56.94206299 152.39791748 -57.88412598 152.79583496 -58.85473633 153.20581055 C-62.40208217 154.70464038 -65.94859228 156.20543922 -69.49487305 157.70678711 C-71.02004189 158.35216826 -72.54542683 158.99703898 -74.07104492 159.64135742 C-82.76755576 163.3146129 -91.43618028 167.02381653 -100 171 C-96.97381525 172.57837599 -93.9893364 173.66091079 -90.71899414 174.6496582 C-83.9260399 176.72081437 -78.2691463 179.10120904 -73 184 C-87.28953572 204.56572396 -108.51139074 218.17046358 -132 226 C-122.76 226.33 -113.52 226.66 -104 227 C-106.4622787 239.31139351 -113.50544586 250.10695325 -123.33984375 257.83984375 C-133.58451663 264.63088299 -145.00646655 265.52999248 -157 265 C-145.18188512 268.80353123 -133.02092662 267.07448965 -121 265 C-135.76644036 291.96313656 -157.02086798 312.27079457 -186.94091797 321.22851562 C-190.60495613 322.25435333 -194.29063548 323.15449639 -198 324 C-199.57394531 324.36931641 -199.57394531 324.36931641 -201.1796875 324.74609375 C-212.25714021 326.87637312 -223.77034169 326.17848827 -235 326 C-235.24459961 327.23862793 -235.48919922 328.47725586 -235.74121094 329.75341797 C-237.0581962 335.66027677 -239.08025128 341.26304296 -241.140625 346.9453125 C-241.54528992 348.07339325 -241.94995483 349.201474 -242.36688232 350.36373901 C-243.22166344 352.7430955 -244.07907443 355.12150866 -244.93896484 357.49902344 C-246.23766801 361.09089299 -247.52773101 364.68577215 -248.81640625 368.28125 C-251.18174167 374.86500309 -253.57597574 381.43763042 -256 388 C-256.30671631 388.83142517 -256.61343262 389.66285034 -256.92944336 390.51947021 C-259.56250958 397.59053939 -262.08272925 404.05938171 -267 409.875 C-270.60404925 414.24524844 -273.86480426 418.66481387 -276.84375 423.48828125 C-277.2253125 423.98714844 -277.606875 424.48601562 -278 425 C-278.66 425 -279.32 425 -280 425 C-277.57544671 415.38909199 -274.41474017 406.0574616 -271.23046875 396.6796875 C-270.66595556 395.0098597 -270.10169559 393.33994628 -269.53767395 391.66995239 C-268.35870074 388.18131943 -267.17763834 384.6934038 -265.99487305 381.20605469 C-264.49604072 376.78669085 -263.00095537 372.3660718 -261.50728893 367.94495964 C-260.34226153 364.4971661 -259.1759391 361.0498118 -258.00918007 357.60260391 C-257.45849567 355.97556916 -256.90802035 354.34846363 -256.35777855 352.72127914 C-252.65722375 341.78336213 -248.86803085 330.87982996 -245 320 C-245.7626416 319.3913208 -246.5252832 318.7826416 -247.31103516 318.15551758 C-263.34131898 305.30538358 -263.34131898 305.30538358 -265 299.5 C-265 298.675 -265 297.85 -265 297 C-262.02393288 297.43765693 -259.91150196 298.04827166 -257.25 299.5 C-252.30556246 301.7820481 -247.22823381 302.7427446 -242 301 C-242.72703125 300.43345703 -242.72703125 300.43345703 -243.46875 299.85546875 C-252.66940867 292.3003125 -260.69574131 281.94226376 -263 270 C-263.06688591 268.08438746 -263.08531719 266.16664408 -263.0625 264.25 C-263.05347656 263.26515625 -263.04445313 262.2803125 -263.03515625 261.265625 C-263.02355469 260.51796875 -263.01195312 259.7703125 -263 259 C-259.80647721 260.4795679 -257.09066432 262.30330532 -254.25 264.375 C-249.98174806 267.40837193 -245.74675781 269.80242694 -241 272 C-241.39832031 271.41734375 -241.79664063 270.8346875 -242.20703125 270.234375 C-249.53118391 258.90064971 -251.5119175 247.72103118 -248.8125 234.625 C-247.27966555 228.36838246 -244.90687103 222.7333148 -242 217 C-241.34 217 -240.68 217 -240 217 C-239.62488281 218.25554687 -239.24976563 219.51109375 -238.86328125 220.8046875 C-234.9130879 233.79895909 -234.9130879 233.79895909 -229 246 C-228.67 245.67 -228.34 245.34 -228 245 C-228.44246119 243.05378957 -228.93177688 241.11823848 -229.4375 239.1875 C-233.07368187 222.7827901 -232.27970439 205.84636649 -224 191 C-223.34 191 -222.68 191 -222 191 C-221.68546875 192.25554687 -221.3709375 193.51109375 -221.046875 194.8046875 C-217.79273966 207.65624887 -217.79273966 207.65624887 -213 220 C-213.15726562 218.90558594 -213.31453125 217.81117188 -213.4765625 216.68359375 C-216.11662706 195.2953127 -213.10102598 177.39507187 -202 159 C-201.34 159 -200.68 159 -200 159 C-199.970271 159.92111572 -199.970271 159.92111572 -199.93994141 160.86083984 C-199.84346198 163.69925383 -199.73429198 166.53705157 -199.625 169.375 C-199.5940625 170.34050781 -199.563125 171.30601562 -199.53125 172.30078125 C-199.27322332 178.70844389 -198.45883643 184.75494579 -197 191 C-196.89977539 190.32122803 -196.79955078 189.64245605 -196.69628906 188.94311523 C-187.78664434 129.2676887 -156.11471426 82.24450658 -111.52490234 42.37646484 C-110.00520501 41.00469834 -108.5096653 39.61080916 -107.01953125 38.20703125 C-82.58167504 15.2458558 -34.10397359 -23.98178965 0 0 Z M-102 99 C-102 102 -102 102 -102 102 Z M-108 106 C-108.66 107.32 -109.32 108.64 -110 110 C-109.01 109.34 -108.02 108.68 -107 108 C-107.33 107.34 -107.66 106.68 -108 106 Z M-114 113 C-114.99 113.99 -115.98 114.98 -117 116 C-116.67 116.66 -116.34 117.32 -116 118 C-115.01 117.01 -114.02 116.02 -113 115 C-113.33 114.34 -113.66 113.68 -114 113 Z M-119 119 C-119.99 119.99 -120.98 120.98 -122 122 C-121.67 122.66 -121.34 123.32 -121 124 C-120.01 123.01 -119.02 122.02 -118 121 C-118.33 120.34 -118.66 119.68 -119 119 Z M-124 125 C-124.99 125.99 -125.98 126.98 -127 128 C-126.67 128.66 -126.34 129.32 -126 130 C-125.01 129.01 -124.02 128.02 -123 127 C-123.33 126.34 -123.66 125.68 -124 125 Z M-128 130 C-128.99 130.99 -129.98 131.98 -131 133 C-130.67 133.66 -130.34 134.32 -130 135 C-129.01 134.01 -128.02 133.02 -127 132 C-127.33 131.34 -127.66 130.68 -128 130 Z M-132 135 C-137.88746078 141.364378 -143.23498754 148.06584001 -148.45996094 154.97558594 C-150.17153813 157.22549051 -151.9013515 159.46067654 -153.6328125 161.6953125 C-188.03399815 206.22858865 -226.61973141 260.0261796 -239 316 C-238.67 316.99 -238.34 317.98 -238 319 C-236.68 319 -235.36 319 -234 319 C-233.69449219 317.79730469 -233.38898438 316.59460938 -233.07421875 315.35546875 C-215.65152632 249.38355859 -173.51820357 189.28069139 -131 137 C-131.495 136.01 -131.495 136.01 -132 135 Z M-212 222 C-211 224 -211 224 -211 224 Z M-140 227 C-136 228 -136 228 -136 228 Z " fill="#1D215D" transform="translate(336,50)"/>
<path d="M0 0 C-23.50813054 13.56671164 -47.61741125 25.846541 -71.875 38 C-72.77828033 38.4530249 -73.68156067 38.9060498 -74.61221313 39.37280273 C-80.39689842 42.2716289 -86.19230575 45.14756331 -92 48 C-92.66930542 48.33101715 -93.33861084 48.6620343 -94.02819824 49.00308228 C-95.79720223 49.87389344 -97.5741261 50.7285636 -99.3515625 51.58203125 C-100.30111816 52.0406958 -101.25067383 52.49936035 -102.22900391 52.97192383 C-107.09811123 54.778427 -111.92679151 55.06763374 -117 54 C-119.97361086 51.78436838 -121.36959793 50.26080415 -123 47 C-123.2322646 44.28737884 -123.41936235 41.59226874 -123.5625 38.875 C-123.60568359 38.12089844 -123.64886719 37.36679687 -123.69335938 36.58984375 C-123.7994832 34.72678112 -123.90025001 32.86341476 -124 31 C-131.43941693 30.33969672 -136.51271125 32.5623959 -143.1875 35.6875 C-144.25814697 36.17355713 -145.32879395 36.65961426 -146.43188477 37.16040039 C-148.73917175 38.2084736 -151.04369365 39.26265105 -153.34570312 40.32226562 C-159.06066029 42.95239653 -164.80508627 45.51715814 -170.54653931 48.08877563 C-172.39146426 48.91683767 -174.23421441 49.74973978 -176.0769043 50.58276367 C-194.74826956 59 -194.74826956 59 -198 59 C-198 58.34 -198 57.68 -198 57 C-196.25024414 55.73828125 -196.25024414 55.73828125 -193.78515625 54.3125 C-192.88015381 53.78390381 -191.97515137 53.25530762 -191.04272461 52.71069336 C-189.56751343 51.86390015 -189.56751343 51.86390015 -188.0625 51 C-186.55538452 50.12323608 -186.55538452 50.12323608 -185.01782227 49.22875977 C-182.97081916 48.03796837 -180.92223361 46.84989305 -178.87207031 45.66455078 C-175.71582543 43.83530243 -172.57475522 41.98182261 -169.43701172 40.12109375 C-166.7219981 38.51396481 -163.99802957 36.92236543 -161.2734375 35.33154297 C-159.63317233 34.37084642 -157.9954614 33.40578421 -156.359375 32.43798828 C-153.55765812 30.78229491 -150.74829551 29.14022402 -147.9375 27.5 C-147.06859131 26.98300537 -146.19968262 26.46601074 -145.30444336 25.93334961 C-137.12086346 21.19049425 -129.4697535 18.57713665 -120 21 C-116.23800261 22.86551723 -114.32604763 25.25898267 -112.625 29.125 C-112.08662873 32.46290185 -111.93595903 35.38008609 -111.9609375 38.7421875 C-111.96657715 39.72815918 -111.9722168 40.71413086 -111.97802734 41.72998047 C-111.98890381 42.85364014 -111.98890381 42.85364014 -112 44 C-109.27040207 42.83433541 -106.54129341 41.667546 -103.8125 40.5 C-102.89831299 40.1090918 -101.98412598 39.71818359 -101.04223633 39.31542969 C-94.84991947 36.66293191 -88.66779492 33.9879693 -82.4921875 31.296875 C-58.74274907 20.95570335 -34.92068769 10.79130166 -10.6875 1.625 C-9.92872559 1.33230225 -9.16995117 1.03960449 -8.38818359 0.73803711 C-3.35579904 -1.11859968 -3.35579904 -1.11859968 0 0 Z " fill="#F89730" transform="translate(274,417)"/>
<path d="M0 0 C0.66 0.33 1.32 0.66 2 1 C0.37615858 2.14747465 -1.24911056 3.2929291 -2.875 4.4375 C-3.77992187 5.07558594 -4.68484375 5.71367187 -5.6171875 6.37109375 C-8 8 -8 8 -10 9 C-9.04134491 11.33075929 -9.04134491 11.33075929 -6 13 C-33.52373296 25.9483931 -33.52373296 25.9483931 -44.125 30.3125 C-44.80941162 30.59552979 -45.49382324 30.87855957 -46.19897461 31.17016602 C-50.73069593 33 -50.73069593 33 -53 33 C-53 32.34 -53 31.68 -53 31 C-51.25024414 29.73828125 -51.25024414 29.73828125 -48.78515625 28.3125 C-47.42680664 27.51912231 -47.42680664 27.51912231 -46.04101562 26.7097168 C-45.05810547 26.14551025 -44.07519531 25.58130371 -43.0625 25 C-42.06283203 24.41839111 -41.06316406 23.83678223 -40.03320312 23.23754883 C-37.99133979 22.04966519 -35.94787674 20.86452711 -33.90283203 19.68212891 C-30.61776208 17.77850132 -27.34742937 15.8510575 -24.08007812 13.91723633 C-21.38101286 12.32155655 -18.67482457 10.73819243 -15.96826172 9.15527344 C-13.94457117 7.96746599 -11.92742523 6.76898658 -9.91015625 5.5703125 C-8.6278629 4.81726758 -7.34532259 4.06464299 -6.0625 3.3125 C-4.93972656 2.64863281 -3.81695312 1.98476563 -2.66015625 1.30078125 C-1.78230469 0.87152344 -0.90445313 0.44226563 0 0 Z " fill="#EC973D" transform="translate(129,443)"/>
<path d="M0 0 C-12.15315846 6.99632916 -24.37926774 13.8246117 -36.8125 20.3125 C-38.43949829 21.16557739 -38.43949829 21.16557739 -40.09936523 22.03588867 C-41.10427002 22.55642822 -42.1091748 23.07696777 -43.14453125 23.61328125 C-44.03503174 24.07516846 -44.92553223 24.53705566 -45.84301758 25.01293945 C-48 26 -48 26 -50 26 C-50 25.34 -50 24.68 -50 24 C-49.34 24 -48.68 24 -48 24 C-48 23.34 -48 22.68 -48 22 C-47.01 21.67 -46.02 21.34 -45 21 C-45.33 20.01 -45.66 19.02 -46 18 C-46.99 17.67 -47.98 17.34 -49 17 C-23.12872698 6.32015745 -23.12872698 6.32015745 -11 1.75 C-10.22487061 1.45085693 -9.44974121 1.15171387 -8.65112305 0.84350586 C-3.35427167 -1.11809056 -3.35427167 -1.11809056 0 0 Z " fill="#F19839" transform="translate(274,417)"/>
<path d="M0 0 C0.66 0 1.32 0 2 0 C1.67 2.64 1.34 5.28 1 8 C0.34 8 -0.32 8 -1 8 C-1.268125 9.258125 -1.53625 10.51625 -1.8125 11.8125 C-2.65184295 15.55680295 -3.54305064 19.2839276 -4.5 23 C-4.7371875 23.928125 -4.974375 24.85625 -5.21875 25.8125 C-6 28 -6 28 -8 29 C-8 30.65 -8 32.3 -8 34 C-7.01 34 -6.02 34 -5 34 C1.4365681 26.77651606 4.10473462 16.01773738 7 7 C7.33 6.01 7.66 5.02 8 4 C8.66 4 9.32 4 10 4 C6.7471889 17.72458018 2.38102611 29.16413255 -6.59375 40.03515625 C-9.29789139 43.36704475 -11.59187519 46.84207699 -13.84375 50.48828125 C-14.2253125 50.98714844 -14.606875 51.48601562 -15 52 C-15.66 52 -16.32 52 -17 52 C-14.33903319 41.04544518 -10.48399746 30.45737241 -6.8125 19.8125 C-6.15137654 17.88747835 -5.49056656 15.962349 -4.83007812 14.03710938 C-3.22366593 9.35682269 -1.61301041 4.67801657 0 0 Z " fill="#2E305F" transform="translate(73,423)"/>
<path d="M0 0 C0.66 0 1.32 0 2 0 C2.16081055 0.52843506 2.32162109 1.05687012 2.48730469 1.60131836 C3.23569727 4.04854075 3.99280207 6.4929884 4.75 8.9375 C5.00265625 9.76830078 5.2553125 10.59910156 5.515625 11.45507812 C7.29480935 17.17070785 9.44930937 22.58510317 12 28 C11.01 28 10.02 28 9 28 C6.66666667 23.33333333 4.33333333 18.66666667 2 14 C1.01 14.99 0.02 15.98 -1 17 C-1.66 16.67 -2.32 16.34 -3 16 C-3 16.66 -3 17.32 -3 18 C-3.66 18 -4.32 18 -5 18 C-5.33 19.65 -5.66 21.3 -6 23 C-6.33 23 -6.66 23 -7 23 C-6.70645238 14.48711911 -3.53223423 7.59376349 0 0 Z " fill="#24265B" transform="translate(94,267)"/>
<path d="M0 0 C1.1015625 3.765625 1.1015625 3.765625 0.1875 5.875 C-0.204375 6.57625 -0.59625 7.2775 -1 8 C-1.68960962 9.99220557 -2.36079057 11.99105606 -3 14 C-3.66 14 -4.32 14 -5 14 C-5.0825 14.66 -5.165 15.32 -5.25 16 C-6.03208187 19.12832748 -7.34353587 21.65844375 -8.828125 24.50390625 C-10.80599329 28.7167657 -12.23906426 33.12208324 -13.76171875 37.515625 C-15.13518613 41.38039758 -16.67543496 45.14942644 -18.30078125 48.9140625 C-19.21188355 51.26543126 -19.21188355 51.26543126 -19 55 C-19.66 55 -20.32 55 -21 55 C-21.66 57.31 -22.32 59.62 -23 62 C-24.05352768 58.79292453 -23.94266142 56.94017884 -22.8828125 53.75390625 C-22.61025635 52.92721436 -22.3377002 52.10052246 -22.05688477 51.2487793 C-21.74936279 50.36230713 -21.44184082 49.47583496 -21.125 48.5625 C-20.65114868 47.17381714 -20.65114868 47.17381714 -20.16772461 45.75708008 C-14.66138741 29.96388566 -7.69925597 14.83208166 0 0 Z " fill="#282A59" transform="translate(127,303)"/>
<path d="M0 0 C0.66 0 1.32 0 2 0 C2.50404808 2.10320063 3.00310508 4.20759791 3.5 6.3125 C3.7784375 7.48425781 4.056875 8.65601563 4.34375 9.86328125 C5 13 5 13 5 16 C4.34 16 3.68 16 3 16 C2.34 13.03 1.68 10.06 1 7 C-6.02760187 15.56438952 -5.30205134 26.1966192 -4.6875 36.6875 C-4.62626953 37.97333984 -4.56503906 39.25917969 -4.50195312 40.58398438 C-4.35021533 43.72378941 -4.18260219 46.86186463 -4 50 C-4.33 50 -4.66 50 -5 50 C-9.43204799 33.37982004 -8.4261666 15.10898839 0 0 Z " fill="#2C2F5B" transform="translate(112,241)"/>
<path d="M0 0 C0.66 0.33 1.32 0.66 2 1 C1.67 1.66 1.34 2.32 1 3 C2.32 3 3.64 3 5 3 C5 2.34 5 1.68 5 1 C5.99 1.33 6.98 1.66 8 2 C5.66380634 4.33619366 3.67289855 5.11535469 0.625 6.3828125 C-0.44234375 6.82753906 -1.5096875 7.27226562 -2.609375 7.73046875 C-3.72828125 8.19066406 -4.8471875 8.65085937 -6 9.125 C-7.67835937 9.82689453 -7.67835937 9.82689453 -9.390625 10.54296875 C-17.73587828 14 -17.73587828 14 -20 14 C-20 13.34 -20 12.68 -20 12 C-16.88380388 9.67782246 -13.46609539 7.79299924 -10.125 5.8125 C-9.18785156 5.24080078 -8.25070313 4.66910156 -7.28515625 4.08007812 C-6.38925781 3.54447266 -5.49335937 3.00886719 -4.5703125 2.45703125 C-3.74289551 1.96178955 -2.91547852 1.46654785 -2.06298828 0.95629883 C-1.38220215 0.64072021 -0.70141602 0.3251416 0 0 Z " fill="#EB9E3B" transform="translate(96,462)"/>
<path d="M0 0 C0.66 0.66 1.32 1.32 2 2 C-2.60227273 7.625 -2.60227273 7.625 -5.1875 10.0625 C-7.2242946 12.23976319 -8.06375602 14.19126807 -9 17 C-9.66 17 -10.32 17 -11 17 C-11.061875 17.556875 -11.12375 18.11375 -11.1875 18.6875 C-12.10003155 21.28470519 -13.40586133 22.51278101 -15.390625 24.36328125 C-18.91638589 27.94894585 -21.90420256 32.04383205 -25 36 C-25.66 35.67 -26.32 35.34 -27 35 C-20.23183954 26.1087813 -13.44474396 17.23550305 -6.51635742 8.46826172 C-4.30714008 5.67192339 -2.12162827 2.86350482 0 0 Z " fill="#222653" transform="translate(210,179)"/>
<path d="M0 0 C-2 2 -2 2 -4.015625 2.33984375 C-6.20881625 2.81094583 -6.20881625 2.81094583 -7.046875 5.06640625 C-7.27890625 5.89011719 -7.5109375 6.71382812 -7.75 7.5625 C-7.99234375 8.38878906 -8.2346875 9.21507812 -8.484375 10.06640625 C-8.65453125 10.70449219 -8.8246875 11.34257813 -9 12 C-10.98 10.35 -12.96 8.7 -15 7 C-15 7.66 -15 8.32 -15 9 C-16.60875 9.61875 -16.60875 9.61875 -18.25 10.25 C-20.92236654 11.36841497 -22.10589096 12.10891642 -24.1875 14.25 C-24.785625 14.8275 -25.38375 15.405 -26 16 C-28.11328125 15.609375 -28.11328125 15.609375 -30 15 C-4.86180905 -1.62060302 -4.86180905 -1.62060302 0 0 Z " fill="#222656" transform="translate(285,52)"/>
<path d="M0 0 C4.93149341 -0.42512874 7.07990364 -0.56228111 11.375 2.0625 C16.87131094 8.21313367 16.25422347 15.1896902 16 23 C15.67 23 15.34 23 15 23 C14.90203125 22.02417969 14.8040625 21.04835938 14.703125 20.04296875 C14.55359375 18.77066406 14.4040625 17.49835938 14.25 16.1875 C14.11078125 14.92292969 13.9715625 13.65835937 13.828125 12.35546875 C12.89438656 8.57206628 12.14598428 8.0269858 9 6 C9 5.01 9 4.02 9 3 C8.01 3 7.02 3 6 3 C5.566875 3.928125 5.566875 3.928125 5.125 4.875 C4 7 4 7 2 9 C-0.1640625 9.4140625 -0.1640625 9.4140625 -2.625 9.625 C-3.44226563 9.69976562 -4.25953125 9.77453125 -5.1015625 9.8515625 C-5.72804687 9.90054687 -6.35453125 9.94953125 -7 10 C-6.67 9.01 -6.34 8.02 -6 7 C-2.97265625 6.75585938 -2.97265625 6.75585938 0.0546875 6.51171875 C2.39519216 6.12606964 2.39519216 6.12606964 4 3 C4 2.34 4 1.68 4 1 C2.68 0.67 1.36 0.34 0 0 Z " fill="#EB9A41" transform="translate(146,438)"/>
<path d="M0 0 C0.66 0.66 1.32 1.32 2 2 C1.34 2 0.68 2 0 2 C-0.10441406 2.5775 -0.20882812 3.155 -0.31640625 3.75 C-1.1058951 6.34854617 -2.24747621 7.8843712 -3.9375 10 C-5.98365252 12.57402971 -7.61884896 15.0108422 -9 18 C-9.66 18 -10.32 18 -11 18 C-12.26372745 20.34692241 -13.07501909 22.32053613 -13.6875 24.9375 C-15.53780169 29.25487062 -18.0618045 30.52039542 -22 33 C-20.36944798 27.99047272 -17.42548262 24.09827586 -14.375 19.875 C-13.84100586 19.12742432 -13.30701172 18.37984863 -12.75683594 17.60961914 C-11.1772736 15.40198368 -9.59024094 13.19995215 -8 11 C-7.55624023 10.38527832 -7.11248047 9.77055664 -6.65527344 9.13720703 C-4.44808387 6.08319533 -2.23031348 3.03716218 0 0 Z " fill="#232654" transform="translate(181,217)"/>
<path d="M0 0 C-6.93 3.96 -13.86 7.92 -21 12 C-21.33 11.34 -21.66 10.68 -22 10 C-21.34 10 -20.68 10 -20 10 C-20 9.34 -20 8.68 -20 8 C-21.65 8 -23.3 8 -25 8 C-21.06269176 5.37512784 -16.92072468 3.95138679 -12.5 2.3125 C-11.63246094 1.97927734 -10.76492188 1.64605469 -9.87109375 1.30273438 C-9.03707031 0.99271484 -8.20304687 0.68269531 -7.34375 0.36328125 C-6.58255859 0.07751221 -5.82136719 -0.20825684 -5.03710938 -0.50268555 C-3 -1 -3 -1 0 0 Z " fill="#E89740" transform="translate(274,417)"/>
<path d="M0 0 C0.66 0 1.32 0 2 0 C2 2.64 2 5.28 2 8 C0.68 8 -0.64 8 -2 8 C-2.81487171 10.24916619 -3.62696918 12.49926978 -4.4375 14.75 C-4.66759766 15.38421875 -4.89769531 16.0184375 -5.13476562 16.671875 C-6.04795574 19.21292575 -6.93189828 21.71624282 -7.5625 24.34375 C-8.14284946 26.54078725 -9.31332134 27.5333229 -11 29 C-10.27440698 18.59983344 -5.33965327 8.79338645 0 0 Z " fill="#2E305D" transform="translate(134,209)"/>
<path d="M0 0 C3.3 0 6.6 0 10 0 C7.0222666 2.23330005 4.56773717 3.84436741 1.3046875 5.48046875 C-0.01595703 6.14272461 -0.01595703 6.14272461 -1.36328125 6.81835938 C-2.27464844 7.27017578 -3.18601563 7.72199219 -4.125 8.1875 C-5.04410156 8.65091797 -5.96320313 9.11433594 -6.91015625 9.59179688 C-7.78800781 10.02943359 -8.66585937 10.46707031 -9.5703125 10.91796875 C-10.37227051 11.31781982 -11.17422852 11.7176709 -12.00048828 12.12963867 C-14 13 -14 13 -16 13 C-16.33 12.01 -16.66 11.02 -17 10 C-15.35 9.67 -13.7 9.34 -12 9 C-11.67 8.01 -11.34 7.02 -11 6 C-8.36 6 -5.72 6 -3 6 C-3 5.34 -3 4.68 -3 4 C-2.01 4 -1.02 4 0 4 C0 2.68 0 1.36 0 0 Z " fill="#EC983E" transform="translate(202,449)"/>
<path d="M0 0 C0.66 0.33 1.32 0.66 2 1 C0.82744291 4.33727786 -0.18868404 6.77437487 -3 9 C-3.66 9 -4.32 9 -5 9 C-5.10699219 9.57105469 -5.21398437 10.14210937 -5.32421875 10.73046875 C-6.10083198 13.33863225 -7.2516566 15.08780421 -8.8125 17.3125 C-11.42519531 21.11507342 -13.76734571 24.96404802 -16 29 C-16.66 29 -17.32 29 -18 29 C-16.36435494 24.32023775 -13.88581042 20.35104834 -11.25 16.1875 C-10.80479004 15.47916016 -10.35958008 14.77082031 -9.90087891 14.04101562 C-6.81659203 9.17685917 -3.57720046 4.518569 0 0 Z " fill="#282A57" transform="translate(181,139)"/>
<path d="M0 0 C-0.639375 0.28875 -1.27875 0.5775 -1.9375 0.875 C-4.15206079 1.82823451 -4.15206079 1.82823451 -5 4 C-4.34 4.33 -3.68 4.66 -3 5 C-3.33 5.66 -3.66 6.32 -4 7 C-3.34 7 -2.68 7 -2 7 C-2 7.66 -2 8.32 -2 9 C-1.34 9.33 -0.68 9.66 0 10 C-3.72965139 12.03435531 -5.66905042 13 -10 13 C-10 12.34 -10 11.68 -10 11 C-8.68 11 -7.36 11 -6 11 C-6.66 8.69 -7.32 6.38 -8 4 C-9.65 4.66 -11.3 5.32 -13 6 C-12 3 -12 3 -10.0390625 1.796875 C-9.24242187 1.45140625 -8.44578125 1.1059375 -7.625 0.75 C-6.83351562 0.39421875 -6.04203125 0.0384375 -5.2265625 -0.328125 C-3 -1 -3 -1 0 0 Z " fill="#EE973A" transform="translate(175,458)"/>
<path d="M0 0 C0.33 1.32 0.66 2.64 1 4 C0.01 4.495 0.01 4.495 -1 5 C-1.72697462 6.91654482 -1.72697462 6.91654482 -2.3125 9.1875 C-3.31074248 12.41141578 -4.2737922 14.64107888 -6.5625 17.125 C-9.24883849 19.89107742 -9.24883849 19.89107742 -10.0625 23.75 C-11 27 -11 27 -13.125 28.4375 C-13.74375 28.623125 -14.3625 28.80875 -15 29 C-13.74617813 24.95463622 -12.25395537 21.34606937 -10.21484375 17.63671875 C-9.41916992 16.18362305 -9.41916992 16.18362305 -8.60742188 14.70117188 C-8.05634766 13.70666016 -7.50527344 12.71214844 -6.9375 11.6875 C-6.38255859 10.67365234 -5.82761719 9.65980469 -5.25585938 8.61523438 C-1.15162295 1.15162295 -1.15162295 1.15162295 0 0 Z " fill="#292A57" transform="translate(143,274)"/>
<path d="M0 0 C1.98 0.99 1.98 0.99 4 2 C4 2.99 4 3.98 4 5 C3.67 5.33 3.34 5.66 3 6 C3.30119966 12.32519291 4.64469002 17.17571353 7.2578125 22.93359375 C7.50273438 23.61550781 7.74765625 24.29742187 8 25 C7.67 25.66 7.34 26.32 7 27 C6.01585567 25.08588443 5.03786651 23.1686033 4.0625 21.25 C3.51722656 20.18265625 2.97195312 19.1153125 2.41015625 18.015625 C0.30827993 13.52075375 -0.1214965 10.20570579 -0.0625 5.25 C-0.05347656 4.26515625 -0.04445313 3.2803125 -0.03515625 2.265625 C-0.02355469 1.51796875 -0.01195313 0.7703125 0 0 Z " fill="#2C2D58" transform="translate(73,309)"/>
<path d="M0 0 C0.33 0 0.66 0 1 0 C1.67856819 13.72215675 -1.76247448 26.05081033 -6 39 C-7.20054169 35.48174588 -6.7757271 32.97243441 -6 29.375 C-4.98244445 25.57226561 -4.98244445 25.57226561 -6 22 C-5.34 22 -4.68 22 -4 22 C-1.99763587 14.67059167 -0.48701051 7.59064664 0 0 Z " fill="#22244D" transform="translate(345,71)"/>
<path d="M0 0 C0 0.66 0 1.32 0 2 C-0.66 2 -1.32 2 -2 2 C-2 2.66 -2 3.32 -2 4 C-3.24891614 4.48198463 -4.49918808 4.96045677 -5.75 5.4375 C-6.79414063 5.83775391 -6.79414063 5.83775391 -7.859375 6.24609375 C-9.89059003 6.96146693 -11.9035291 7.51365652 -14 8 C-14.33 6.35 -14.66 4.7 -15 3 C-9.63999211 0.74315457 -5.8022175 -0.36263859 0 0 Z " fill="#F79732" transform="translate(254,425)"/>
<path d="M0 0 C0.66 0.99 1.32 1.98 2 3 C0.54618103 3.69699552 -0.91322953 4.38233866 -2.375 5.0625 C-3.59316406 5.63677734 -3.59316406 5.63677734 -4.8359375 6.22265625 C-5.55007812 6.47917969 -6.26421875 6.73570312 -7 7 C-7.66 6.67 -8.32 6.34 -9 6 C-9 6.66 -9 7.32 -9 8 C-10.32 8 -11.64 8 -13 8 C-12.06601394 4.85841051 -11.33205059 3.2674852 -8.75 1.1875 C-5.55246016 -0.19325584 -3.4472372 -0.45963163 0 0 Z " fill="#F7982E" transform="translate(110,457)"/>
<path d="M0 0 C0.66 0.33 1.32 0.66 2 1 C1.01 2.485 1.01 2.485 0 4 C-0.66 4 -1.32 4 -2 4 C-2.66 5.32 -3.32 6.64 -4 8 C-5.299375 7.979375 -6.59875 7.95875 -7.9375 7.9375 C-9.29165633 7.91600546 -10.64756083 7.92851801 -12 8 C-12.33 8.33 -12.66 8.66 -13 9 C-14.66617115 9.04063832 -16.33388095 9.042721 -18 9 C-15.11979544 6.11979544 -11.7010969 4.92687706 -8 3.3125 C-7.26265625 2.97927734 -6.5253125 2.64605469 -5.765625 2.30273438 C-3.87060222 1.47106836 -1.93703469 0.72847533 0 0 Z " fill="#EE993A" transform="translate(192,448)"/>
<path d="M0 0 C3.45925163 1.2491742 6.14693203 2.67527795 9 5 C9.66 4.67 10.32 4.34 11 4 C11.33 6.31 11.66 8.62 12 11 C11.34 11 10.68 11 10 11 C10 12.65 10 14.3 10 16 C9.01 16.33 8.02 16.66 7 17 C6.87625 18.134375 6.7525 19.26875 6.625 20.4375 C6.41875 21.613125 6.2125 22.78875 6 24 C5.34 24.33 4.68 24.66 4 25 C5.16651426 19.07136283 6.75519358 13.61201606 9 8 C8.3503125 7.50628906 7.700625 7.01257813 7.03125 6.50390625 C6.1959375 5.86324219 5.360625 5.22257812 4.5 4.5625 C3.6646875 3.92441406 2.829375 3.28632813 1.96875 2.62890625 C1.3190625 2.09136719 0.669375 1.55382812 0 1 C0 0.67 0 0.34 0 0 Z " fill="#282B59" transform="translate(82,362)"/>
<path d="M0 0 C0 1.32 0 2.64 0 4 C-1.32 4 -2.64 4 -4 4 C-4 4.66 -4 5.32 -4 6 C-4.66 6 -5.32 6 -6 6 C-6 6.66 -6 7.32 -6 8 C-7.32 7.67 -8.64 7.34 -10 7 C-10 6.01 -10 5.02 -10 4 C-9.34 4 -8.68 4 -8 4 C-8 3.34 -8 2.68 -8 2 C-7.34 2 -6.68 2 -6 2 C-6 1.34 -6 0.68 -6 0 C-2.25 -1.125 -2.25 -1.125 0 0 Z " fill="#FB972C" transform="translate(230,435)"/>
<path d="M0 0 C0.66 0 1.32 0 2 0 C-0.03863617 8.27056461 -2.82287673 16.10114411 -6 24 C-6.66 24 -7.32 24 -8 24 C-5.69356492 15.86184696 -2.89571216 7.94317882 0 0 Z " fill="#373A63" transform="translate(81,427)"/>
<path d="M0 0 C0.6875 2.3125 0.6875 2.3125 1 5 C-0.125 6.8125 -0.125 6.8125 -2 8 C-4.6875 8.1875 -4.6875 8.1875 -7 8 C-6.67 7.34 -6.34 6.68 -6 6 C-6 5.34 -6 4.68 -6 4 C-6.66 4 -7.32 4 -8 4 C-8 3.34 -8 2.68 -8 2 C-8.66 1.67 -9.32 1.34 -10 1 C-6.61981469 -0.04005702 -3.5219721 -0.08004482 0 0 Z " fill="#FB9628" transform="translate(150,437)"/>
<path d="M0 0 C1.76462683 3.08809695 2 4.23312136 2 8 C-1.3 7.67 -4.6 7.34 -8 7 C-3.375 1.125 -3.375 1.125 0 0 Z " fill="#FD9527" transform="translate(167,461)"/>
<path d="M0 0 C-1.98 0.99 -1.98 0.99 -4 2 C1.94 2 7.88 2 14 2 C14 2.33 14 2.66 14 3 C10.73025053 3.36469424 7.45911086 3.71493339 4.1875 4.0625 C2.7943457 4.2181543 2.7943457 4.2181543 1.37304688 4.37695312 C0.0340332 4.51713867 0.0340332 4.51713867 -1.33203125 4.66015625 C-2.15421143 4.74918213 -2.9763916 4.83820801 -3.82348633 4.92993164 C-6 5 -6 5 -9 4 C-9 3.01 -9 2.02 -9 1 C-5.57367167 -0.61798838 -3.61944899 -1.34053666 0 0 Z " fill="#1C1E4D" transform="translate(250,195)"/>
<path d="M0 0 C0.66 0.33 1.32 0.66 2 1 C2.625 3.0625 2.625 3.0625 3 5 C1.25531628 5.70088156 -0.49601161 6.38524009 -2.25 7.0625 C-3.22453125 7.44535156 -4.1990625 7.82820313 -5.203125 8.22265625 C-8.04007395 9.01113787 -9.29409552 9.02437812 -12 8 C-10.576875 7.87625 -10.576875 7.87625 -9.125 7.75 C-8.09375 7.5025 -7.0625 7.255 -6 7 C-4.81669817 5.13355094 -4.81669817 5.13355094 -4 3 C-1.875 1.25 -1.875 1.25 0 0 Z " fill="#1B204E" transform="translate(158,362)"/>
<path d="M0 0 C3.66172475 0.62678171 6.8818995 1.64451846 10.3125 3.0625 C11.19550781 3.42472656 12.07851562 3.78695313 12.98828125 4.16015625 C13.65214844 4.43730469 14.31601563 4.71445312 15 5 C15 5.33 15 5.66 15 6 C13.37536158 6.05395478 11.75021459 6.09277195 10.125 6.125 C8.76761719 6.15980469 8.76761719 6.15980469 7.3828125 6.1953125 C5 6 5 6 3 4 C3 4.66 3 5.32 3 6 C2.34 6 1.68 6 1 6 C0.67 4.02 0.34 2.04 0 0 Z " fill="#21224D" transform="translate(71,347)"/>
<path d="M0 0 C0.66 0.33 1.32 0.66 2 1 C1.67 1.66 1.34 2.32 1 3 C2.32 3 3.64 3 5 3 C5 2.34 5 1.68 5 1 C5.99 1.33 6.98 1.66 8 2 C5.16092346 4.83907654 1.93213107 6.20735698 -2 7 C-4.5 5.6875 -4.5 5.6875 -6 4 C-4.02 2.68 -2.04 1.36 0 0 Z " fill="#E7963C" transform="translate(96,462)"/>
<path d="M0 0 C0.99 0 1.98 0 3 0 C2.37183502 3.94949704 1.1354471 7.19892028 -0.5625 10.8125 C-1.01753906 11.78832031 -1.47257813 12.76414062 -1.94140625 13.76953125 C-2.29074219 14.50558594 -2.64007813 15.24164063 -3 16 C-3.66 16 -4.32 16 -5 16 C-4.79503906 15.39671875 -4.59007812 14.7934375 -4.37890625 14.171875 C-3.97478516 12.97304688 -3.97478516 12.97304688 -3.5625 11.75 C-3.29566406 10.96109375 -3.02882812 10.1721875 -2.75390625 9.359375 C-2.08045292 7.25178012 -1.50849405 5.15246027 -1 3 C-0.34 3 0.32 3 1 3 C0.67 2.01 0.34 1.02 0 0 Z " fill="#26274F" transform="translate(229,277)"/>
<path d="M0 0 C2.64 0.33 5.28 0.66 8 1 C4.27074217 4.2428329 -0.30238735 6.5119901 -5 8 C-5.99 7.67 -6.98 7.34 -8 7 C-7.05125 6.5875 -6.1025 6.175 -5.125 5.75 C-1.99283376 3.9959869 -1.13499394 3.29148243 0 0 Z " fill="#1E204D" transform="translate(215,266)"/>
<path d="M0 0 C1.32 0.33 2.64 0.66 4 1 C-1.28 4.63 -6.56 8.26 -12 12 C-12.33 11.34 -12.66 10.68 -13 10 C-11.2126038 8.66094733 -9.41995047 7.32890934 -7.625 6 C-6.62726563 5.2575 -5.62953125 4.515 -4.6015625 3.75 C-2 2 -2 2 0 2 C0 1.34 0 0.68 0 0 Z " fill="#20234D" transform="translate(285,169)"/>
<path d="M0 0 C4.14107131 2.12344542 6.05264074 4.14077527 8.3125 8.1875 C8.82425781 9.08855469 9.33601563 9.98960938 9.86328125 10.91796875 C10.23839844 11.60503906 10.61351562 12.29210938 11 13 C10.34 13.66 9.68 14.32 9 15 C8.3503125 13.63875 8.3503125 13.63875 7.6875 12.25 C6.15019164 9.07225128 6.15019164 9.07225128 4.3125 6.75 C3 5 3 5 3 3 C1.68 3 0.36 3 -1 3 C-0.67 2.01 -0.34 1.02 0 0 Z " fill="#242755" transform="translate(333,49)"/>
<path d="M0 0 C0.66 0.33 1.32 0.66 2 1 C0.27744283 2.46613447 -1.45333784 3.92261056 -3.1875 5.375 C-4.15042969 6.18710937 -5.11335937 6.99921875 -6.10546875 7.8359375 C-8.73115596 9.79900189 -10.91175041 10.9724654 -14 12 C-14 11.34 -14 10.68 -14 10 C-12.33720673 8.9935725 -10.67016516 7.99414593 -9 7 C-8.34 6.01 -7.68 5.02 -7 4 C-5.02477154 2.95191959 -3.02518491 1.9479589 -1 1 C-0.67 0.67 -0.34 0.34 0 0 Z " fill="#1E2048" transform="translate(188,347)"/>
<path d="M0 0 C-2.31 3.63 -4.62 7.26 -7 11 C-7.33 10.01 -7.66 9.02 -8 8 C-7.34 7.01 -6.68 6.02 -6 5 C-6 4.01 -6 3.02 -6 2 C-6.66 1.34 -7.32 0.68 -8 0 C-4.71303767 -0.79953138 -3.28976808 -1.09658936 0 0 Z " fill="#23254B" transform="translate(215,316)"/>
<path d="M0 0 C0.66 0.66 1.32 1.32 2 2 C-3.445 8.435 -3.445 8.435 -9 15 C-9.66 14.67 -10.32 14.34 -11 14 C-10.37351563 13.24074219 -9.74703125 12.48148438 -9.1015625 11.69921875 C-8.28429687 10.70535156 -7.46703125 9.71148437 -6.625 8.6875 C-5.81289062 7.70136719 -5.00078125 6.71523437 -4.1640625 5.69921875 C-1.94395043 3.01091621 -1.94395043 3.01091621 0 0 Z " fill="#272957" transform="translate(193,124)"/>
<path d="M0 0 C-1.57046743 1.06096463 -3.15694517 2.09826235 -4.75 3.125 C-5.63171875 3.70507812 -6.5134375 4.28515625 -7.421875 4.8828125 C-10 6 -10 6 -12.328125 5.1796875 C-12.87984375 4.79039062 -13.4315625 4.40109375 -14 4 C-11.58592302 2.39061535 -9.65955563 1.34509262 -7 0.3125 C-5.9790625 -0.09548828 -5.9790625 -0.09548828 -4.9375 -0.51171875 C-3 -1 -3 -1 0 0 Z " fill="#DFA351" transform="translate(274,417)"/>
<path d="M0 0 C1.078125 3.765625 1.078125 3.765625 0.375 5.875 C-1.52068516 8.80469525 -3.71885901 11.35867885 -6 14 C-6.33 13.34 -6.66 12.68 -7 12 C-5.56640625 9.1796875 -5.56640625 9.1796875 -3.5625 5.875 C-2.57443359 4.23144531 -2.57443359 4.23144531 -1.56640625 2.5546875 C-1.04949219 1.71164062 -0.53257812 0.86859375 0 0 Z " fill="#272859" transform="translate(151,260)"/>
<path d="M0 0 C0.66 0.33 1.32 0.66 2 1 C-0.14267077 5.28534154 -1.62130748 6.33192666 -6 8 C-8.77152212 10.52056045 -8.77152212 10.52056045 -11 13 C-11.66 12.67 -12.32 12.34 -13 12 C-8.71 8.04 -4.42 4.08 0 0 Z " fill="#212854" transform="translate(245,74)"/>
<path d="M0 0 C-2.11997834 1.19733988 -4.24513676 2.38298713 -6.375 3.5625 C-6.97828125 3.90474609 -7.5815625 4.24699219 -8.203125 4.59960938 C-9.76978241 5.46127095 -11.38290862 6.23718183 -13 7 C-13.66 6.67 -14.32 6.34 -15 6 C-14.01 5.67 -13.02 5.34 -12 5 C-12 3.35 -12 1.7 -12 0 C-11.67 0.99 -11.34 1.98 -11 3 C-10.18595703 2.54947266 -10.18595703 2.54947266 -9.35546875 2.08984375 C-8.64003906 1.70957031 -7.92460937 1.32929688 -7.1875 0.9375 C-6.47980469 0.55464844 -5.77210938 0.17179687 -5.04296875 -0.22265625 C-3 -1 -3 -1 0 0 Z " fill="#E79645" transform="translate(251,430)"/>
<path d="M0 0 C0.99 0.33 1.98 0.66 3 1 C2.09066991 2.27609323 1.17217147 3.54565553 0.25 4.8125 C-0.26046875 5.52019531 -0.7709375 6.22789062 -1.296875 6.95703125 C-3.02482358 9.02977691 -4.78526476 10.47375854 -7 12 C-6.67 10.68 -6.34 9.36 -6 8 C-5.34 8 -4.68 8 -4 8 C-3.67 6.68 -3.34 5.36 -3 4 C-2.34 4 -1.68 4 -1 4 C-0.67 2.68 -0.34 1.36 0 0 Z " fill="#1A1F48" transform="translate(317,138)"/>
<path d="M0 0 C0.66 0.33 1.32 0.66 2 1 C1.09276387 5.68738665 0.0452733 10.34193744 -1 15 C-2.71056541 12.41569255 -3.05220752 11.31678461 -2.5390625 8.203125 C-2.23742187 7.22859375 -1.93578125 6.2540625 -1.625 5.25 C-1.32851562 4.26515625 -1.03203125 3.2803125 -0.7265625 2.265625 C-0.48679688 1.51796875 -0.24703125 0.7703125 0 0 Z " fill="#2C2F5C" transform="translate(147,201)"/>
<path d="M0 0 C0.66 0 1.32 0 2 0 C0.59023295 3.03852705 -1.08870228 5.5939595 -3.125 8.25 C-3.66382812 8.95640625 -4.20265625 9.6628125 -4.7578125 10.390625 C-5.16773437 10.92171875 -5.57765625 11.4528125 -6 12 C-6.64453125 10.16015625 -6.64453125 10.16015625 -7 8 C-4.6875 5.4375 -4.6875 5.4375 -2 3 C-1.34 2.01 -0.68 1.02 0 0 Z " fill="#2B2E59" transform="translate(72,451)"/>
<path d="M0 0 C0.66 0.99 1.32 1.98 2 3 C-0.64 5.97 -3.28 8.94 -6 12 C-6.33 11.01 -6.66 10.02 -7 9 C-6.175 8.21625 -5.35 7.4325 -4.5 6.625 C-1.77011494 4.36278736 -1.77011494 4.36278736 -2 2 C-1.34 2 -0.68 2 0 2 C0 1.34 0 0.68 0 0 Z " fill="#1A1D4C" transform="translate(234,145)"/>
<path d="M0 0 C0.99 0.33 1.98 0.66 3 1 C5.3406065 0.72230092 7.67624308 0.39460023 10 0 C6.63576723 2.96052484 3.30840713 3.92289822 -1 5 C-0.67 3.35 -0.34 1.7 0 0 Z " fill="#E69843" transform="translate(176,462)"/>
<path d="M0 0 C1.8871875 0.0309375 1.8871875 0.0309375 3.8125 0.0625 C3.8125 0.7225 3.8125 1.3825 3.8125 2.0625 C0.1825 2.3925 -3.4475 2.7225 -7.1875 3.0625 C-7.1875 2.4025 -7.1875 1.7425 -7.1875 1.0625 C-4.43671116 0.14557039 -2.82801087 -0.04636083 0 0 Z " fill="#20214E" transform="translate(134.1875,371.9375)"/>
<path d="M0 0 C0 3 0 3 -1.75 5.04296875 C-2.4925 5.75066406 -3.235 6.45835937 -4 7.1875 C-4.7425 7.90292969 -5.485 8.61835938 -6.25 9.35546875 C-6.8275 9.89816406 -7.405 10.44085938 -8 11 C-8.33 10.01 -8.66 9.02 -9 8 C-8.34 8 -7.68 8 -7 8 C-6.773125 7.4225 -6.54625 6.845 -6.3125 6.25 C-4.66961977 3.4336339 -2.60466773 1.91922886 0 0 Z " fill="#21244D" transform="translate(201,334)"/>
<path d="M0 0 C0.66 0 1.32 0 2 0 C0.78065514 4.03321763 -0.55954927 7.54269479 -3 11 C-3.66 11 -4.32 11 -5 11 C-4.67 9.02 -4.34 7.04 -4 5 C-3.01 5 -2.02 5 -1 5 C-0.67 3.35 -0.34 1.7 0 0 Z " fill="#252854" transform="translate(130,286)"/>
<path d="M0 0 C0 0.99 0 1.98 0 3 C-2.64 3.33 -5.28 3.66 -8 4 C-8 3.34 -8 2.68 -8 2 C-8.66 1.67 -9.32 1.34 -10 1 C-6.61981469 -0.04005702 -3.5219721 -0.08004482 0 0 Z " fill="#F8B026" transform="translate(150,437)"/>
<path d="M0 0 C0.66 0 1.32 0 2 0 C1.46884894 4.51478398 -0.36620292 7.34666857 -3 11 C-3.33 10.34 -3.66 9.68 -4 9 C-3.22265625 6.8359375 -3.22265625 6.8359375 -2.0625 4.375 C-1.68222656 3.55773437 -1.30195312 2.74046875 -0.91015625 1.8984375 C-0.60980469 1.27195312 -0.30945313 0.64546875 0 0 Z " fill="#31345D" transform="translate(94,267)"/>
<path d="M0 0 C0.99 0.495 0.99 0.495 2 1 C2.6328125 3.28515625 2.6328125 3.28515625 3.125 6.0625 C3.29257813 6.98160156 3.46015625 7.90070313 3.6328125 8.84765625 C3.75398438 9.55792969 3.87515625 10.26820313 4 11 C3.01 11.495 3.01 11.495 2 12 C0.40861915 7.82262526 -0.21278058 4.46839215 0 0 Z " fill="#2D2E5B" transform="translate(87,300)"/>
<path d="M0 0 C0.33 0.66 0.66 1.32 1 2 C0.34 2 -0.32 2 -1 2 C-1 2.66 -1 3.32 -1 4 C-4.67568464 4.91892116 -6.16380575 4.95904856 -10 4 C-6.7 2.68 -3.4 1.36 0 0 Z " fill="#EC9942" transform="translate(223,435)"/>
<path d="M0 0 C0.66 0.99 1.32 1.98 2 3 C-2.455 4.485 -2.455 4.485 -7 6 C-7 5.34 -7 4.68 -7 4 C-4.69 2.68 -2.38 1.36 0 0 Z " fill="#D09B56" transform="translate(83,470)"/>
<path d="M0 0 C0.66 0.33 1.32 0.66 2 1 C1.67 2.65 1.34 4.3 1 6 C-1.31 5.67 -3.62 5.34 -6 5 C-4.06745228 2.9754262 -2.36841312 1.57894208 0 0 Z " fill="#E9973E" transform="translate(111,453)"/>
<path d="M0 0 C1.0326802 2.78823655 1.04509293 3.8677274 0.0625 6.75 C-0.288125 7.4925 -0.63875 8.235 -1 9 C-1.66 9 -2.32 9 -3 9 C-2.67 6.69 -2.34 4.38 -2 2 C-1.34 2 -0.68 2 0 2 C0 1.34 0 0.68 0 0 Z " fill="#252656" transform="translate(108,330)"/>
<path d="M0 0 C0 3 0 3 -1.53125 4.60546875 C-2.1809375 5.12753906 -2.830625 5.64960938 -3.5 6.1875 C-4.1496875 6.71730469 -4.799375 7.24710937 -5.46875 7.79296875 C-5.9740625 8.19128906 -6.479375 8.58960938 -7 9 C-6.690625 8.401875 -6.38125 7.80375 -6.0625 7.1875 C-4.89790296 4.91043228 -4.89790296 4.91043228 -4 2 C-1.9375 0.8125 -1.9375 0.8125 0 0 Z " fill="#21234E" transform="translate(221,297)"/>
<path d="M0 0 C0.66 0 1.32 0 2 0 C2 2.64 2 5.28 2 8 C1.34 8 0.68 8 0 8 C-1.125 2.25 -1.125 2.25 0 0 Z " fill="#373765" transform="translate(134,209)"/>
<path d="M0 0 C1.32 0.33 2.64 0.66 4 1 C3.67 2.65 3.34 4.3 3 6 C2.34 6 1.68 6 1 6 C0.67 4.02 0.34 2.04 0 0 Z " fill="#2C2C53" transform="translate(71,347)"/>
<path d="M0 0 C0.66 0 1.32 0 2 0 C3.32 2.31 4.64 4.62 6 7 C5.01 7 4.02 7 3 7 C0 2.77777778 0 2.77777778 0 0 Z " fill="#262957" transform="translate(92,315)"/>
<path d="M0 0 C2.6465335 2.6465335 3.59941997 5.56221264 5 9 C4.01 9 3.02 9 2 9 C0.50178941 5.62902617 0 3.79557881 0 0 Z " fill="#252750" transform="translate(101,286)"/>
<path d="M0 0 C0.66 0 1.32 0 2 0 C4.09350689 3.4019487 4.17942163 6.05272412 4 10 C1.16625119 6.79663178 0.4794463 4.21912747 0 0 Z " fill="#292A5E" transform="translate(97,279)"/>
<path d="M0 0 C-2.95183101 2.95183101 -5.95511947 3.08663988 -10 4 C-6.87839899 0.56623888 -4.64008112 -1.54669371 0 0 Z " fill="#232450" transform="translate(285,52)"/>
</svg>
