<?xml version="1.0" encoding="UTF-8"?>
<svg version="1.1" xmlns="http://www.w3.org/2000/svg" width="512" height="512" viewBox="420 345 450 540">
<path d="M0 0 C0.66818133 -0.00523668 1.33636265 -0.01047336 2.0247919 -0.01586872 C4.26249415 -0.03086363 6.49996764 -0.03157375 8.73771667 -0.03224182 C10.34269598 -0.03986369 11.94767163 -0.04829124 13.55264282 -0.0574646 C17.9122481 -0.07941456 22.27178324 -0.08820923 26.63143754 -0.09329104 C29.35590017 -0.09693422 32.08034441 -0.10317409 34.80480003 -0.11029243 C44.311744 -0.13478926 53.81863339 -0.1478392 63.3256073 -0.15138245 C72.18367491 -0.15501727 81.04139593 -0.18490816 89.89935762 -0.22678703 C97.50714009 -0.26149273 105.11480773 -0.27693094 112.72266883 -0.27762848 C117.2652678 -0.27842124 121.8075138 -0.28715924 126.3500309 -0.31562614 C130.62408609 -0.34181151 134.89749579 -0.34400967 139.17159462 -0.3279705 C140.73769031 -0.32615633 142.30382315 -0.33284403 143.86983871 -0.34878922 C157.16121004 -0.47583974 157.16121004 -0.47583974 161.70162964 2.56161499 C166.25545733 7.24343835 166.63065526 10.7243995 166.58052063 17.12016296 C166.58222948 17.91578982 166.58393833 18.71141668 166.58569896 19.53115344 C166.58899583 22.19981028 166.57798694 24.86821625 166.56706238 27.53684998 C166.56649831 29.44874567 166.56681474 31.36064179 166.56794739 33.27253723 C166.56852206 38.46638743 166.55674919 43.66014557 166.54279947 48.85397434 C166.53031121 54.28054909 166.52912312 59.70712587 166.52674866 65.13371277 C166.52052829 75.41131366 166.50410992 85.68887209 166.48404968 95.96645427 C166.46170801 107.66643941 166.45070161 119.36642655 166.44065881 131.06642771 C166.41974419 155.13569358 166.38455738 179.20492175 166.3400116 203.27415466 C165.25317078 203.66232361 164.16632996 204.05049255 163.04655457 204.45042419 C161.59995737 204.97720614 160.15351361 205.50440959 158.7071991 206.03196716 C157.99330017 206.28567078 157.27940125 206.53937439 156.54386902 206.80076599 C151.13621627 208.78718743 146.71311878 211.38877243 142.1603241 214.95384216 C140.3400116 216.27415466 140.3400116 216.27415466 138.3400116 216.27415466 C138.0718866 216.91352966 137.8037616 217.55290466 137.5275116 218.21165466 C136.3400116 220.27415466 136.3400116 220.27415466 133.3400116 221.27415466 C132.31532924 223.00732391 132.31532924 223.00732391 131.3400116 225.27415466 C130.38558833 226.8830975 129.43078241 228.49182048 128.47111511 230.09764099 C125.11194319 235.7607275 122.40149844 241.03116503 120.81266785 247.48118591 C120.3400116 249.27415466 120.3400116 249.27415466 119.3400116 250.27415466 C117.72147304 250.3767164 116.09846091 250.4093554 114.47668457 250.41459656 C113.42379745 250.4203067 112.37091034 250.42601685 111.28611755 250.43190002 C110.12094604 250.43301788 108.95577454 250.43413574 107.7552948 250.43528748 C105.92610756 250.44273483 105.92610756 250.44273483 104.05996704 250.45033264 C100.7043425 250.46246848 97.34878051 250.46990711 93.99314141 250.4743433 C91.89670239 250.47727141 89.80026888 250.48137583 87.70383263 250.48584747 C81.14495439 250.49953232 74.58608871 250.50919276 68.02719718 250.51304936 C60.45599063 250.51752543 52.88496504 250.535048 45.31381351 250.56404996 C39.46321344 250.58568253 33.61266421 250.59575457 27.76202458 250.59709048 C24.26745004 250.59813787 20.77304538 250.60403074 17.27851295 250.6219101 C13.37618333 250.64148562 9.47407857 250.63709549 5.57170105 250.63059998 C4.4166507 250.63981476 3.26160034 250.64902954 2.07154846 250.65852356 C-8.15155353 250.6051639 -8.15155353 250.6051639 -12.6599884 247.27415466 C-16.33356345 242.70899936 -16.08781041 238.42258109 -16.05439758 232.82971191 C-16.06353424 231.39632694 -16.06353424 231.39632694 -16.07285547 229.9339847 C-16.08951421 226.72962718 -16.08470549 223.52566578 -16.07991028 220.3212738 C-16.08724889 218.02487779 -16.0958345 215.72848547 -16.10557556 213.43209839 C-16.12782116 207.1924886 -16.13072074 200.95301075 -16.12882805 194.71336675 C-16.1287085 189.50690676 -16.13726628 184.30047488 -16.14560556 179.09402269 C-16.16595105 166.11054989 -16.16698568 153.12716296 -16.15979844 140.14368104 C-16.15422231 128.87033673 -16.17505201 117.59721963 -16.20815891 106.32392842 C-16.24189748 94.74560617 -16.25658948 83.16742059 -16.25244188 71.58904546 C-16.25037174 65.0897928 -16.25589496 58.59076644 -16.28033447 52.09155464 C-16.30255426 45.98063634 -16.30076303 39.87019185 -16.28040695 33.75927162 C-16.27698859 31.51549158 -16.28212132 29.27167993 -16.29639053 27.02794266 C-16.31451725 23.96659936 -16.30188201 20.90687467 -16.28144836 17.84558105 C-16.29396621 16.9559868 -16.30648406 16.06639255 -16.31938124 15.14984089 C-16.25958633 10.97633495 -16.00072451 8.14410187 -13.37114716 4.80094051 C-8.8160644 0.55562709 -6.22477444 0.0241919 0 0 Z " fill="#022D47" transform="translate(448.6599884033203,365.72584533691406)"/>
<path d="M0 0 C0.84163696 -0.00700928 1.68327393 -0.01401855 2.55041504 -0.02124023 C5.32585962 -0.03880264 8.10027783 -0.02719216 10.87573242 -0.01367188 C12.82183526 -0.01637006 14.76793678 -0.02025519 16.71403503 -0.02526855 C20.79695445 -0.03116358 24.87952371 -0.02261071 28.96240234 -0.00390625 C34.14884521 0.01871639 39.33445233 0.005867 44.52086353 -0.01819611 C48.54571071 -0.03279731 52.57036696 -0.02798046 56.59522057 -0.01768494 C58.50422963 -0.01504823 60.41325702 -0.01817748 62.32224464 -0.02760315 C77.30652372 -0.08528531 92.44236521 0.92626509 105.85620117 8.33007812 C106.84064209 8.84828125 106.84064209 8.84828125 107.8449707 9.37695312 C113.34954385 12.33584748 118.47208265 15.69633631 123.41870117 19.51757812 C124.27077148 20.15566406 125.1228418 20.79375 126.00073242 21.45117188 C140.85011439 32.87206085 152.38030462 49.34835926 158.66870117 66.95507812 C158.90282715 67.61008301 159.13695312 68.26508789 159.37817383 68.93994141 C160.11600943 71.11853985 160.77100636 73.31038775 161.41870117 75.51757812 C161.67363342 76.36819824 161.92856567 77.21881836 162.19122314 78.09521484 C164.91003434 88.30850293 164.89216432 98.2654807 164.88745117 108.77148438 C164.89457346 110.72281608 164.90227538 112.67414575 164.91052246 114.62547302 C164.9239014 118.70097682 164.92556713 122.77628716 164.91967773 126.85180664 C164.91380492 132.01654118 164.94430437 137.18032814 164.98479462 142.3448801 C165.01094023 146.37325338 165.01352469 150.40140705 165.00990295 154.42985344 C165.01157095 156.33082383 165.02098316 158.23180704 165.03904724 160.13269234 C165.28619864 189.36367457 155.873761 213.47611692 135.41870117 234.51757812 C126.84914349 242.98171067 117.0640446 250.71646848 104.53181458 250.76641846 C103.79597641 250.75922791 103.06013824 250.75203735 102.30200195 250.74462891 C101.11562889 250.74506699 101.11562889 250.74506699 99.9052887 250.74551392 C97.30808287 250.74412786 94.71116898 250.728601 92.11401367 250.71289062 C90.30655067 250.70915792 88.49908563 250.70631216 86.69161987 250.70431519 C81.94708618 250.69669903 77.202676 250.67706792 72.45819092 250.65490723 C67.61171133 250.63440527 62.76521168 250.62530418 57.91870117 250.61523438 C48.41864707 250.59382008 38.91868441 250.55970856 29.41870117 250.51757812 C29.12009689 249.60171181 29.12009689 249.60171181 28.81546021 248.66734314 C28.55062836 247.86244949 28.28579651 247.05755585 28.01293945 246.22827148 C27.75199493 245.43206894 27.49105042 244.63586639 27.22219849 243.8155365 C21.20901644 226.61816473 8.47548348 214.62626986 -7.58911133 206.87695312 C-9.80716594 205.86927296 -12.02841725 204.88931738 -14.26831055 203.93261719 C-15.36159668 203.4656543 -16.45488281 202.99869141 -17.58129883 202.51757812 C-17.65136185 177.58753235 -17.70427376 152.65750132 -17.73673534 127.72737694 C-17.75220804 116.15203944 -17.77330533 104.57676309 -17.80761719 93.00146484 C-17.83750713 82.91312165 -17.8568709 72.82482273 -17.86356431 62.73643649 C-17.86747724 57.39409378 -17.87668166 52.05187778 -17.898489 46.70957565 C-17.91884767 41.68143701 -17.92513384 36.6534773 -17.92062187 31.62530136 C-17.92144735 29.77982104 -17.92741665 27.93433476 -17.93891525 26.08889008 C-17.95384971 23.56842959 -17.95024906 21.04864395 -17.94206238 18.52816772 C-17.9508009 17.7985827 -17.95953943 17.06899768 -17.96854275 16.31730402 C-17.92758665 11.64954486 -17.04244452 8.48044482 -14.58129883 4.51757812 C-9.82638518 0.31599546 -6.04554448 -0.0624417 0 0 Z " fill="#022D47" transform="translate(657.581298828125,365.482421875)"/>
<path d="M0 0 C1.85958847 -0.00131424 1.85958847 -0.00131424 3.75674438 -0.00265503 C7.13932628 0.00079759 10.51968315 0.03078227 13.90187144 0.07278872 C17.44253464 0.11041901 20.98323079 0.11383068 24.52406311 0.12094116 C31.22127298 0.13955424 37.91789182 0.18874222 44.614842 0.2490381 C52.242345 0.31621439 59.86987694 0.34912 67.49760234 0.37921071 C83.18111632 0.44184532 98.86404137 0.54731015 114.54711914 0.68115234 C114.88666626 1.64750107 115.22621338 2.61384979 115.5760498 3.60948181 C116.02788039 4.88723732 116.47983174 6.16495013 116.93188477 7.44262695 C117.15491272 8.07838402 117.37794067 8.71414108 117.60772705 9.36916351 C120.60541176 17.82188531 124.67906477 25.71678934 131.54711914 31.68115234 C132.26899414 32.46490234 132.99086914 33.24865234 133.73461914 34.05615234 C139.87484432 39.78702918 145.91351391 43.66293423 153.89477539 46.39990234 C154.53741333 46.62258789 155.18005127 46.84527344 155.84216309 47.07470703 C157.40833875 47.61642469 158.97743658 48.14968186 160.54711914 48.68115234 C160.61717726 70.499255 160.67009165 92.31733913 160.70255566 114.13553143 C160.71802941 124.26592962 160.73912866 134.39625797 160.7734375 144.52661133 C160.80332427 153.35546582 160.82269045 162.18426973 160.82938462 171.0131734 C160.8332981 175.68870831 160.84250591 180.36409847 160.86430931 185.03958702 C160.88466304 189.43983577 160.89095519 193.83988008 160.88644218 198.24017143 C160.88726788 199.85547751 160.89324021 201.47079038 160.90473557 203.08605576 C160.91966259 205.29160517 160.91607246 207.49638278 160.90788269 209.70195007 C160.91064807 210.93623088 160.91341345 212.17051168 160.91626263 213.44219494 C160.50395688 217.05986883 159.80461522 218.84180257 157.54711914 221.68115234 C153.64785513 224.76653707 150.61565242 225.05750622 145.7154541 225.06210327 C145.04092367 225.06678324 144.36639323 225.07146322 143.67142248 225.076285 C141.41819764 225.08822142 139.16558254 225.07878353 136.91235352 225.06933594 C135.2941299 225.07340226 133.67590906 225.07874448 132.05769348 225.08526611 C127.6672287 225.09893839 123.2769755 225.09364145 118.88650703 225.08412886 C114.29107215 225.07653181 109.69565533 225.083578 105.10021973 225.08828735 C97.38310495 225.09374477 89.66607631 225.08655365 81.94897461 225.07226562 C73.02787482 225.05593913 64.10698071 225.06122765 55.18588591 225.07774484 C47.52545521 225.0913601 39.86508643 225.09327918 32.20464754 225.08542883 C27.62982086 225.08075254 23.05509085 225.08012628 18.48027039 225.0900383 C14.17922528 225.09870626 9.87844529 225.09268923 5.57742882 225.07535553 C3.9992231 225.07138977 2.42099506 225.07252628 0.84279823 225.07914352 C-1.31217401 225.08734587 -3.4662976 225.07705435 -5.62121582 225.06210327 C-6.8268795 225.06097219 -8.03254318 225.05984112 -9.27474213 225.05867577 C-13.84673666 224.51557958 -16.28350812 223.07915748 -19.22297955 219.56496906 C-20.93638531 215.54745308 -21.01827798 211.87027551 -21.13130188 207.54008484 C-21.16437889 206.65525506 -21.19745591 205.77042528 -21.23153526 204.85878247 C-21.54090575 195.88680808 -21.60125749 186.91464668 -21.59814453 177.93823242 C-21.60114824 176.16665579 -21.60455347 174.39507981 -21.60832214 172.62350464 C-21.61703183 167.88249678 -21.61949433 163.14150704 -21.62013793 158.40049195 C-21.62085459 155.43002976 -21.62300014 152.45957202 -21.62563515 149.48911095 C-21.63483712 139.10447273 -21.63897552 128.71984724 -21.63818359 118.33520508 C-21.63758044 108.68399109 -21.64819191 99.03283256 -21.66392726 89.38163263 C-21.67701138 81.05758809 -21.6823673 72.73356171 -21.68172818 64.40950698 C-21.68147396 59.45361119 -21.68428498 54.4977651 -21.69490623 49.54187965 C-21.70460487 44.89186025 -21.70465434 40.24193802 -21.6973896 35.59191513 C-21.69634679 33.89120402 -21.69868858 32.19048678 -21.70475006 30.48978615 C-21.77767959 8.60491772 -21.77767959 8.60491772 -16.60618591 3.16122437 C-11.57059209 -0.58757235 -6.03825071 -0.11205924 0 0 Z " fill="#CC4B15" transform="translate(453.452880859375,640.31884765625)"/>
<path d="M0 0 C9.00590187 -0.09286334 18.01163779 -0.1638474 27.01791477 -0.20724869 C31.20034819 -0.22808392 35.38245296 -0.25632644 39.56469727 -0.30175781 C43.60420377 -0.3453618 47.64339505 -0.36916766 51.68311882 -0.37950897 C53.22085466 -0.38687437 54.75857412 -0.40125734 56.296175 -0.42292023 C71.27556852 -0.62548264 71.27556852 -0.62548264 77 4 C81.43559587 9.60809752 83.26970401 17.37940589 85.56982422 24.08178711 C87.45014635 29.5412983 89.51355482 34.90117998 91.6875 40.25 C95.01583765 48.45612957 98.1890196 56.71381027 101.3125 65 C105.52179966 76.1613337 109.83710467 87.27496975 114.21704102 98.37060547 C117.0876594 105.6512873 119.8872389 112.95181061 122.609375 120.2890625 C124.20268225 124.54086555 125.84704552 128.771117 127.5 133 C129.962845 139.30214371 132.37085509 145.62167306 134.73046875 151.96313477 C136.60113469 156.97570293 138.54398162 161.95771863 140.5 166.9375 C143.09589409 173.55824031 145.54301475 180.21725971 147.85791016 186.94140625 C149.38117561 191.3449343 151.08136321 195.63478703 152.875 199.9375 C155.40952048 206.47002214 156.49240225 212.30826813 153.8125 218.9375 C150.40473077 222.81530636 146.99713111 224.18729354 142 225 C140.35133972 225.08819873 138.69976633 225.13042057 137.04875183 225.13371277 C135.59172096 225.14011024 135.59172096 225.14011024 134.10525513 225.14663696 C132.52404373 225.14595718 132.52404373 225.14595718 130.91088867 225.14526367 C129.7915947 225.14862228 128.67230072 225.1519809 127.51908875 225.15544128 C123.81870412 225.16494049 120.11836481 225.16689392 116.41796875 225.16796875 C113.8435311 225.17118216 111.26909364 225.17454629 108.69465637 225.17805481 C103.29700215 225.18404358 97.89936587 225.18593783 92.50170898 225.18530273 C86.27660756 225.18470247 80.05159294 225.19524644 73.82651347 225.2110464 C67.82347952 225.22573601 61.82049243 225.22928975 55.81743813 225.22869301 C53.27020221 225.22987186 50.72296563 225.23428834 48.1757412 225.24202538 C44.60951959 225.25184287 41.04352025 225.24894004 37.47729492 225.24291992 C35.90519257 225.25134918 35.90519257 225.25134918 34.30133057 225.25994873 C26.97764947 225.22859674 18.80609614 224.9996939 13 220 C12.08984375 218.29248047 12.08984375 218.29248047 11.1875 216.1796875 C10.84106445 215.37168701 10.49462891 214.56368652 10.13769531 213.73120117 C7.98355447 208.55987636 5.85487609 203.37908526 3.75 198.1875 C3.26619873 196.99697021 2.78239746 195.80644043 2.28393555 194.57983398 C-2.15492052 183.64466101 -6.54024465 172.68853431 -10.90625 161.72412109 C-15.33315611 150.61153729 -19.80922633 139.51932409 -24.3125 128.4375 C-24.58959808 127.75557587 -24.86669617 127.07365173 -25.15219116 126.37106323 C-28.13005579 119.04416941 -31.11321445 111.71946663 -34.10546875 104.3984375 C-34.59426514 103.20162354 -35.08306152 102.00480957 -35.58666992 100.77172852 C-36.49318166 98.55297487 -37.40079814 96.33467207 -38.30981445 94.11694336 C-39.13614249 92.09436417 -39.95532131 90.06884741 -40.7668457 88.0402832 C-41.6184927 85.94058808 -42.50199685 83.85363342 -43.41088867 81.77807617 C-46.62244489 74.16077086 -47.66154161 67.91951206 -47.3125 59.6875 C-47.28994141 58.64916016 -47.26738281 57.61082031 -47.24414062 56.54101562 C-47.18618426 54.02570931 -47.10469797 51.51371764 -47 49 C-46.1483728 48.62452026 -46.1483728 48.62452026 -45.27954102 48.24145508 C-25.89873352 39.66711224 -11.24983886 30.72662696 -3 10 C-2.46512324 8.27910934 -1.94314595 6.55418056 -1.4309082 4.82641602 C-1.16244583 3.9233522 -0.89398346 3.02028839 -0.61738586 2.08985901 C-0.41364853 1.40020554 -0.20991119 0.71055206 0 0 Z " fill="#022D47" transform="translate(687,641)"/>
<path d="M0 0 C9.51838585 7.8249307 15.30777032 16.988215 16.6875 29.4375 C17.18612616 41.05700046 13.05634037 50.59598455 5.6875 59.5 C-0.62224611 66.18896291 -8.92141137 70.89797779 -18.25 71.25 C-18.94480469 71.28738281 -19.63960937 71.32476563 -20.35546875 71.36328125 C-31.12730882 71.71554452 -41.31359225 68.75845969 -49.36328125 61.2890625 C-51.10573283 59.34139714 -52.69556188 57.34955615 -54.25 55.25 C-54.9925 54.321875 -55.735 53.39375 -56.5 52.4375 C-61.62349908 43.10541238 -62.79138097 32.40827771 -60.55859375 22.0390625 C-57.21124237 10.91857297 -50.63381659 3.07135935 -40.8125 -3 C-27.58802691 -9.49623239 -12.09208072 -8.47835545 0 0 Z " fill="#CC4B15" transform="translate(650.25,596.75)"/>
<path d="M0 0 C0.67312029 -0.00170885 1.34624057 -0.0034177 2.03975844 -0.00517833 C4.2938464 -0.00847095 6.54763627 0.00252651 8.80169678 0.01345825 C10.41802971 0.01402242 12.03436316 0.0137057 13.6506958 0.01257324 C18.03879358 0.01199893 22.42678223 0.02376594 26.81485462 0.03772116 C31.40061199 0.05021543 35.98637179 0.05139799 40.57214355 0.05377197 C49.25602968 0.05999057 57.9398655 0.07640654 66.62372947 0.09647095 C76.50996323 0.11881812 86.39619938 0.12982041 96.28245211 0.13986182 C116.61929873 0.16077243 136.95610005 0.1959558 157.29290771 0.24050903 C156.96290771 1.23050903 156.63290771 2.22050903 156.29290771 3.24050903 C155.0488469 3.23497828 155.0488469 3.23497828 153.77965355 3.22933578 C133.59889193 3.14099731 113.41816364 3.07480551 93.23724937 3.03326035 C83.47789949 3.01263538 73.71867867 2.98451599 63.95941162 2.93875122 C55.45319934 2.8988815 46.94708054 2.87307574 38.44077742 2.86415505 C33.9367431 2.85894053 29.43297618 2.8466859 24.92902756 2.81758881 C20.68878142 2.79041753 16.44891258 2.78206746 12.20858765 2.78807831 C10.65335667 2.78697883 9.09811294 2.77903494 7.54295731 2.76368713 C5.41637093 2.74373121 3.2912017 2.74858867 1.1645813 2.75949097 C-0.61908813 2.75396021 -0.61908813 2.75396021 -2.43879128 2.74831772 C-6.42949926 3.34930025 -8.60409395 4.69798355 -11.70709229 7.24050903 C-13.04832213 11.26419856 -12.85513578 15.14126374 -12.85426331 19.33728027 C-12.85793999 20.27961631 -12.86161668 21.22195235 -12.86540478 22.19284403 C-12.87645617 25.36417402 -12.8802879 28.53547125 -12.88409424 31.70681763 C-12.89035766 33.97498174 -12.89700435 36.24314482 -12.90400696 38.51130676 C-12.92142495 44.68275205 -12.93197037 50.85418958 -12.94021249 57.02565336 C-12.94535971 60.87860086 -12.95143549 64.73154594 -12.95772362 68.58449173 C-12.97459216 79.25093277 -12.98922824 89.9173704 -12.99647236 100.58382225 C-12.99838225 103.35122046 -13.00030259 106.11861867 -13.0022583 108.88601685 C-13.00274204 109.5738408 -13.00322578 110.26166476 -13.00372418 110.97033186 C-13.0120286 122.11833951 -13.03737371 133.26624 -13.06983898 144.41420083 C-13.10289428 155.85796465 -13.12058672 167.30164847 -13.1241166 178.74546492 C-13.12647157 185.17148026 -13.13549053 191.59732614 -13.16057777 198.02329636 C-13.18378782 204.06598633 -13.18812016 210.1083944 -13.17781639 216.15111732 C-13.17731924 218.37113315 -13.18369216 220.59116252 -13.19737244 222.81113625 C-13.21498248 225.83768909 -13.20803869 228.86321818 -13.19483948 231.88977051 C-13.20580872 232.771969 -13.21677797 233.65416749 -13.22807962 234.56309927 C-13.18529583 238.61551704 -13.01807083 240.73060089 -10.86410809 244.26243019 C-7.59600344 247.25942662 -4.93417669 247.36510341 -0.67677307 247.36076355 C0.36229187 247.36213821 1.40135681 247.36351288 2.47190857 247.3649292 C4.18094109 247.35953629 4.18094109 247.35953629 5.92449951 247.35403442 C7.12462677 247.35418045 8.32475403 247.35432648 9.56124878 247.35447693 C12.85231303 247.35389924 16.14331472 247.34888058 19.4343679 247.34190297 C22.87368826 247.33565583 26.31300943 247.33506455 29.75233459 247.33387756 C36.26523912 247.33076827 42.77812689 247.32256028 49.29102403 247.31252807 C56.70570232 247.30135448 64.1203814 247.29585334 71.53506601 247.29083264 C86.78768962 247.28037734 102.04029651 247.26278566 117.29290771 247.24050903 C117.54975342 246.34050171 117.80659912 245.44049438 118.07122803 244.51321411 C118.41766357 243.33654175 118.76409912 242.15986938 119.12103271 240.94754028 C119.46037842 239.77940796 119.79972412 238.61127563 120.14935303 237.40774536 C121.57231678 233.46664613 122.99204873 231.71615327 126.29290771 229.24050903 C125.8092671 233.95600502 124.34147822 237.67088577 122.32806396 241.89675903 C121.12335476 244.62440252 120.22121621 247.40833213 119.29290771 250.24050903 C102.96819384 250.31062592 86.64352891 250.36351029 70.31870079 250.39594555 C62.73860003 250.41140687 55.1585929 250.43248227 47.57855225 250.46682739 C40.97089786 250.49675234 34.3633113 250.51608938 27.75559103 250.52277452 C24.25763339 250.52668156 20.75986974 250.53584813 17.26197433 250.5576992 C13.35476832 250.58190867 9.44775118 250.58247703 5.54046631 250.58108521 C4.38384491 250.59187103 3.22722351 250.60265686 2.03555298 250.61376953 C-8.19928484 250.57426452 -8.19928484 250.57426452 -12.70709229 247.24050903 C-16.38055515 242.67517919 -16.13491491 238.38903998 -16.10150146 232.79606628 C-16.11063812 231.36268131 -16.11063812 231.36268131 -16.11995935 229.90033907 C-16.13661809 226.69598155 -16.13180937 223.49202015 -16.12701416 220.28762817 C-16.13435277 217.99123216 -16.14293839 215.69483984 -16.15267944 213.39845276 C-16.17492504 207.15884297 -16.17782462 200.91936512 -16.17593193 194.67972112 C-16.17581238 189.47326113 -16.18437016 184.26682925 -16.19270945 179.06037706 C-16.21305493 166.07690426 -16.21408956 153.09351733 -16.20690233 140.11003541 C-16.2013262 128.8366911 -16.22215589 117.563574 -16.25526279 106.29028279 C-16.28900136 94.71196054 -16.30369336 83.13377496 -16.29954576 71.55539984 C-16.29747562 65.05614717 -16.30299884 58.55712081 -16.32743835 52.05790901 C-16.34965814 45.94699071 -16.34786691 39.83654622 -16.32751083 33.72562599 C-16.32409247 31.48184595 -16.32922521 29.2380343 -16.34349442 26.99429703 C-16.36162113 23.93295373 -16.34898589 20.87322904 -16.32855225 17.81193542 C-16.34107009 16.92234117 -16.35358794 16.03274692 -16.36648512 15.11619526 C-16.30669021 10.94268932 -16.0478284 8.11045624 -13.41825104 4.76729488 C-8.84048384 0.50083967 -6.25837876 -0.00956939 0 0 Z " fill="#000824" transform="translate(448.70709228515625,365.7594909667969)"/>
<path d="M0 0 C0.84163696 -0.00700928 1.68327393 -0.01401855 2.55041504 -0.02124023 C5.32585962 -0.03880264 8.10027783 -0.02719216 10.87573242 -0.01367188 C12.82183526 -0.01637006 14.76793678 -0.02025519 16.71403503 -0.02526855 C20.79695445 -0.03116358 24.87952371 -0.02261071 28.96240234 -0.00390625 C34.14884521 0.01871639 39.33445233 0.005867 44.52086353 -0.01819611 C48.54571071 -0.03279731 52.57036696 -0.02798046 56.59522057 -0.01768494 C58.50422963 -0.01504823 60.41325702 -0.01817748 62.32224464 -0.02760315 C77.30652372 -0.08528531 92.44236521 0.92626509 105.85620117 8.33007812 C106.84064209 8.84828125 106.84064209 8.84828125 107.8449707 9.37695312 C113.34954385 12.33584748 118.47208265 15.69633631 123.41870117 19.51757812 C124.27077148 20.15566406 125.1228418 20.79375 126.00073242 21.45117188 C137.98559383 30.66891386 152.21065253 46.1245807 156.07495117 61.05273438 C156.35620117 63.26757813 156.35620117 63.26757813 156.41870117 66.51757812 C153.59173226 63.05169673 151.63474278 59.22708345 149.60620117 55.26757812 C146.63642535 49.6090885 143.59374129 44.38845826 139.41870117 39.51757812 C138.7406543 38.71964844 138.06260742 37.92171875 137.36401367 37.09960938 C121.06744931 18.46288092 100.31041683 5.30831706 75.17001152 3.34167099 C69.37891728 3.06961944 63.58583249 3.09645817 57.78979492 3.11914062 C55.94230536 3.11711411 54.09481657 3.1141979 52.24732971 3.11044312 C48.40748348 3.10605685 44.56784873 3.11233683 40.72802734 3.12646484 C35.81552542 3.14366398 30.90351149 3.13362483 25.99102688 3.11574745 C22.18970565 3.10490171 18.3885001 3.10835772 14.58717537 3.11613083 C12.77513635 3.11812502 10.96308667 3.11570114 9.1510601 3.10869217 C6.62467424 3.10105246 4.09908086 3.11271183 1.57275391 3.12939453 C0.46226685 3.12028549 0.46226685 3.12028549 -0.6706543 3.11099243 C-5.35896515 3.16819311 -8.72611612 3.78950121 -12.58129883 6.51757812 C-14.49032764 10.96083796 -14.8306588 14.81256517 -14.82853699 19.61653137 C-14.8309514 20.30795076 -14.83336582 20.99937014 -14.8358534 21.71174163 C-14.84146554 24.01666562 -14.83284579 26.32130938 -14.82421875 28.6262207 C-14.82529236 30.28423131 -14.82723222 31.94224155 -14.82997131 33.60025024 C-14.83481431 38.09886394 -14.82716732 42.59737824 -14.81701827 47.09597993 C-14.8082117 51.81924968 -14.80999584 56.54251655 -14.81037903 61.26579285 C-14.80944246 69.20903169 -14.80076547 77.15223235 -14.78710938 85.09545898 C-14.77144349 94.24065519 -14.76610928 103.38580942 -14.76684493 112.53101808 C-14.76752457 122.30368459 -14.76055358 132.0763352 -14.75139832 141.84899688 C-14.74928103 144.64435052 -14.74855903 147.43970155 -14.74815941 150.23505592 C-14.74714265 154.66000614 -14.74093944 159.08492214 -14.73099327 163.50986099 C-14.72811143 165.12011823 -14.72683394 166.73037941 -14.72742081 168.34063911 C-14.729855 179.10135551 -14.320592 189.78202459 -13.58129883 200.51757812 C-12.79542389 200.82905792 -12.00954895 201.14053772 -11.19985962 201.4614563 C-7.66157252 202.88852351 -4.33100419 204.61953957 -0.95629883 206.39257812 C-0.28856445 206.73160156 0.37916992 207.070625 1.06713867 207.41992188 C4.69063721 209.32588211 7.29921615 210.96385511 9.41870117 214.51757812 C5.97068561 214.19432667 3.7280967 213.16630095 0.91870117 211.26757812 C-3.72222411 208.20332036 -8.71356153 206.4225207 -13.92114258 204.53320312 C-16.58129883 203.51757812 -16.58129883 203.51757812 -17.58129883 202.51757812 C-17.68565642 200.05225538 -17.72462808 197.61470415 -17.72174072 195.14863586 C-17.72619741 193.97764124 -17.72619741 193.97764124 -17.73074412 192.78299016 C-17.73946949 190.14673867 -17.74094261 187.51053239 -17.74243164 184.87426758 C-17.74705721 182.99225262 -17.75208151 181.11023861 -17.75747681 179.22822571 C-17.77063043 174.0999468 -17.77705184 168.971681 -17.78148746 163.84338784 C-17.78441421 160.64138565 -17.7885183 157.43938708 -17.79299164 154.2373867 C-17.80667609 144.2250105 -17.81633737 134.21264251 -17.82019353 124.2002576 C-17.82467289 112.63208238 -17.84221116 101.06402541 -17.87119412 89.49588615 C-17.89280065 80.56251034 -17.90289731 71.62916782 -17.90423465 62.69576615 C-17.90528367 57.35680141 -17.91121181 52.01794768 -17.92905426 46.67901039 C-17.9455165 41.65495049 -17.94769939 36.63108522 -17.93891525 31.60700798 C-17.93814381 29.76314397 -17.94250164 27.91926957 -17.9523735 26.07543182 C-17.96506476 23.55720172 -17.95923166 21.03966384 -17.9487915 18.5214386 C-17.95684791 17.79253569 -17.96490431 17.06363279 -17.97320485 16.31264192 C-17.92801039 11.64809583 -17.03999525 8.47814411 -14.58129883 4.51757812 C-9.82638518 0.31599546 -6.04554448 -0.0624417 0 0 Z " fill="#00192E" transform="translate(657.581298828125,365.482421875)"/>
<path d="M0 0 C0.66 0 1.32 0 2 0 C2.00146656 1.04675242 2.00293312 2.09350485 2.00444412 3.17197704 C2.04101823 28.62667525 2.10044036 54.08124166 2.18390274 79.5358305 C2.22373385 91.84542247 2.25610566 104.15495012 2.27099609 116.46459961 C2.28399149 127.1920849 2.3109021 137.91942893 2.35461307 148.64683467 C2.37727535 154.32839204 2.39290782 160.00977488 2.39188385 165.69138145 C2.39114006 171.03727217 2.40897781 176.38277637 2.44116783 181.72856712 C2.44969805 183.69215636 2.4513957 185.65578879 2.44580269 187.61938858 C2.43918821 190.29807982 2.45702165 192.97553207 2.48101807 195.65409851 C2.46937744 196.82288238 2.46937744 196.82288238 2.45750165 198.01527804 C2.51570889 201.67912994 2.88909966 203.82212542 4.84493637 206.95911884 C8.4573055 210.38009259 11.65930046 210.12691479 16.43257141 210.13371277 C17.41624413 210.1371111 17.41624413 210.1371111 18.41978902 210.14057809 C20.62142989 210.14691786 22.8230092 210.14608874 25.0246582 210.14526367 C26.60155314 210.14825522 28.17844734 210.15165773 29.75534058 210.15544128 C34.04262305 210.1642869 38.32988558 210.16661966 42.61717629 210.16725707 C46.1956361 210.16820606 49.77409124 210.17188433 53.35254925 210.17542917 C61.79615177 210.18357619 70.23974362 210.18601321 78.68334961 210.18530273 C87.39303358 210.18470216 96.10265558 210.19524941 104.81232387 210.2110464 C112.28927696 210.22412429 119.76620981 210.22948651 127.24317425 210.22884732 C131.70906227 210.22859237 136.17489524 210.23144202 140.64077187 210.24202538 C144.8424164 210.25171029 149.04395332 210.25178283 153.24560165 210.24450874 C154.78630289 210.24346333 156.32701085 210.24582324 157.86770058 210.2518692 C159.9740858 210.25959849 162.08010029 210.25493833 164.18647766 210.24723816 C165.95324089 210.24805531 165.95324089 210.24805531 167.7556963 210.24888897 C171.12890973 209.9901106 173.85037829 209.20464879 177 208 C177.33 208.66 177.66 209.32 178 210 C173.9392858 212.89161961 171.11676451 213.37630863 166.16833496 213.38095093 C165.49380453 213.3856309 164.81927409 213.39031087 164.12430334 213.39513266 C161.8710785 213.40706908 159.6184634 213.39763119 157.36523438 213.38818359 C155.74701076 213.39224991 154.12878992 213.39759213 152.51057434 213.40411377 C148.12010956 213.41778604 143.72985636 213.41248911 139.33938789 213.40297651 C134.743953 213.39537947 130.14853619 213.40242565 125.55310059 213.40713501 C117.83598581 213.41259243 110.11895717 213.40540131 102.40185547 213.39111328 C93.48075568 213.37478679 84.55986157 213.38007531 75.63876677 213.3965925 C67.97833607 213.41020775 60.31796729 213.41212683 52.6575284 213.40427649 C48.08270172 213.39960019 43.50797171 213.39897394 38.93315125 213.40888596 C34.63210614 213.41755392 30.33132615 213.41153689 26.03030968 213.39420319 C24.45210396 213.39023743 22.87387592 213.39137394 21.29567909 213.39799118 C19.14070685 213.40619353 16.98658326 213.39590201 14.83166504 213.38095093 C13.62600136 213.37981985 12.42033768 213.37868877 11.17813873 213.37752342 C6.60604763 212.83441577 4.16920437 211.39805753 1.2299633 207.88350677 C-0.48306159 203.86751795 -0.56607982 200.19256577 -0.67941284 195.8638916 C-0.71251678 194.97919646 -0.74562073 194.09450131 -0.77972782 193.18299723 C-1.08971242 184.1826239 -1.14123121 175.18248144 -1.12939453 166.17773438 C-1.13075472 164.3980455 -1.13253808 162.6183569 -1.13470459 160.83866882 C-1.13920029 156.07733256 -1.13752376 151.31601835 -1.1343255 146.55468178 C-1.13176704 141.54780652 -1.13414846 136.54093296 -1.13571167 131.53405762 C-1.13752059 123.14916651 -1.13515797 114.76428428 -1.13037109 106.37939453 C-1.12490243 96.68833447 -1.12671502 86.99729537 -1.1321975 77.30623579 C-1.13673129 68.95679275 -1.13737872 60.60735603 -1.13475883 52.25791216 C-1.13320118 47.28263028 -1.13298888 42.30735827 -1.13629532 37.33207703 C-1.13917885 32.66978275 -1.13718948 28.00751571 -1.13140106 23.34522438 C-1.13007728 21.63435219 -1.13046112 19.92347771 -1.13266373 18.21260643 C-1.13538945 15.881005 -1.13197694 13.54949132 -1.12698364 11.21789551 C-1.1264181 9.26025646 -1.1264181 9.26025646 -1.12584114 7.26306915 C-1.02406687 4.6240555 -0.79359694 2.49802636 0 0 Z " fill="#D02600" transform="translate(433,652)"/>
<path d="M0 0 C1.85958847 -0.00131424 1.85958847 -0.00131424 3.75674438 -0.00265503 C7.13932628 0.00079759 10.51968315 0.03078227 13.90187144 0.07278872 C17.44253464 0.11041901 20.98323079 0.11383068 24.52406311 0.12094116 C31.22127298 0.13955424 37.91789182 0.18874222 44.614842 0.2490381 C52.242345 0.31621439 59.86987694 0.34912 67.49760234 0.37921071 C83.18111632 0.44184532 98.86404137 0.54731015 114.54711914 0.68115234 C114.88666626 1.64750107 115.22621338 2.61384979 115.5760498 3.60948181 C116.02788039 4.88723732 116.47983174 6.16495013 116.93188477 7.44262695 C117.15491272 8.07838402 117.37794067 8.71414108 117.60772705 9.36916351 C120.60541176 17.82188531 124.67906477 25.71678934 131.54711914 31.68115234 C132.26899414 32.46490234 132.99086914 33.24865234 133.73461914 34.05615234 C139.87484432 39.78702918 145.91351391 43.66293423 153.89477539 46.39990234 C154.53741333 46.62258789 155.18005127 46.84527344 155.84216309 47.07470703 C157.40833875 47.61642469 158.97743658 48.14968186 160.54711914 48.68115234 C160.61713829 70.53379652 160.67007248 92.38642225 160.70255566 114.23915577 C160.7180377 124.38530536 160.73915272 134.53138533 160.7734375 144.67749023 C160.80329897 153.51877741 160.82268441 162.36001419 160.82938462 171.20135039 C160.83330241 175.88464609 160.8425374 180.56779757 160.86430931 185.25104713 C160.88462315 189.65621426 160.89096333 194.06117729 160.88644218 198.4663868 C160.88726968 200.08575803 160.8932657 201.70513588 160.90473557 203.32446671 C160.91960027 205.53071742 160.9160954 207.73619147 160.90788269 209.94245911 C160.91064807 211.1785835 160.91341345 212.41470789 160.91626263 213.6882906 C160.54711914 216.68115234 160.54711914 216.68115234 159.02457142 218.60232067 C158.53701217 218.95833512 158.04945292 219.31434958 157.54711914 219.68115234 C157.21711914 219.02115234 156.88711914 218.36115234 156.54711914 217.68115234 C156.87711914 217.02115234 157.20711914 216.36115234 157.54711914 215.68115234 C157.65352448 213.51494041 157.6938189 211.34539834 157.70533752 209.17660522 C157.7102755 208.50111024 157.71521348 207.82561525 157.72030109 207.12965071 C157.73571615 204.85564209 157.7440475 202.58166178 157.75244141 200.30761719 C157.76201679 198.68172454 157.77202666 197.0558344 157.78244019 195.4299469 C157.80953219 191.00666868 157.83051845 186.58337975 157.85044217 182.16006422 C157.87227528 177.54090377 157.89967703 172.92177652 157.92649841 168.30264282 C157.97646155 159.55144205 158.02138692 150.80022289 158.06452078 142.04898608 C158.11386225 132.0878014 158.16879182 122.12665003 158.22420037 112.16549754 C158.33807599 91.67074682 158.44490284 71.17596432 158.54711914 50.68115234 C157.61681885 50.54016113 156.68651855 50.39916992 155.72802734 50.25390625 C146.56316801 48.6036829 138.435123 42.7014813 131.54711914 36.68115234 C130.94383789 36.17197266 130.34055664 35.66279297 129.71899414 35.13818359 C121.09039556 27.26750246 113.99689652 15.19024575 112.54711914 3.68115234 C96.59628648 3.61105845 80.6455038 3.55816235 64.69455433 3.52571583 C57.28817915 3.51024963 49.88189968 3.48916491 42.47558594 3.45483398 C36.01992834 3.42492397 29.56434006 3.40557554 23.1086151 3.39888686 C19.69061208 3.39497728 16.27280737 3.38579463 12.85486794 3.36396217 C9.03837873 3.34223888 5.22230264 3.33918337 1.40576172 3.34057617 C-0.29248497 3.32439743 -0.29248497 3.32439743 -2.02503967 3.30789185 C-3.06685394 3.31201584 -4.10866821 3.31613983 -5.18205261 3.32038879 C-6.08448794 3.31762341 -6.98692327 3.31485804 -7.91670513 3.31200886 C-11.04134627 3.76680421 -12.90617144 4.84005747 -15.45288086 6.68115234 C-16.48645233 8.32721061 -17.49348418 9.99078677 -18.45288086 11.68115234 C-19.11288086 11.68115234 -19.77288086 11.68115234 -20.45288086 11.68115234 C-20.34522745 8.02093656 -19.21028937 6.038017 -16.67259216 3.54403687 C-11.60397086 -0.61245254 -6.29471448 -0.11681875 0 0 Z " fill="#CA3D07" transform="translate(453.452880859375,640.31884765625)"/>
<path d="M0 0 C3 1 3 1 4.07495117 2.97436523 C5.12959629 5.78985541 6.17430139 8.60677332 7.1875 11.4375 C7.55552734 12.39849609 7.92355469 13.35949219 8.30273438 14.34960938 C10.89102413 21.4710077 12.75397963 28.66120829 9.8125 35.9375 C6.40473077 39.81530636 2.99713111 41.18729354 -2 42 C-3.64866028 42.08819873 -5.30023367 42.13042057 -6.95124817 42.13371277 C-7.92260208 42.13797775 -8.89395599 42.14224274 -9.89474487 42.14663696 C-11.47595627 42.14595718 -11.47595627 42.14595718 -13.08911133 42.14526367 C-14.2084053 42.14862228 -15.32769928 42.1519809 -16.48091125 42.15544128 C-20.18129588 42.16494049 -23.88163519 42.16689392 -27.58203125 42.16796875 C-30.1564689 42.17118216 -32.73090636 42.17454629 -35.30534363 42.17805481 C-40.70299785 42.18404358 -46.10063413 42.18593783 -51.49829102 42.18530273 C-57.72339244 42.18470247 -63.94840706 42.19524644 -70.17348653 42.2110464 C-76.17652048 42.22573601 -82.17950757 42.22928975 -88.18256187 42.22869301 C-90.72979779 42.22987186 -93.27703437 42.23428834 -95.8242588 42.24202538 C-99.39048041 42.25184287 -102.95647975 42.24894004 -106.52270508 42.24291992 C-108.09480743 42.25134918 -108.09480743 42.25134918 -109.69866943 42.25994873 C-117.02235053 42.22859674 -125.19390386 41.9996939 -131 37 C-131.9453125 35.21337891 -131.9453125 35.21337891 -132.875 33.0390625 C-133.22014648 32.23428467 -133.56529297 31.42950684 -133.92089844 30.6003418 C-135.73551842 26.22760028 -137.50621759 21.83893598 -139.25 17.4375 C-139.79527344 16.06754883 -139.79527344 16.06754883 -140.3515625 14.66992188 C-141.23597809 12.44724586 -142.11876272 10.22393759 -143 8 C-142.01 7.67 -141.02 7.34 -140 7 C-139.10080677 9.0610374 -138.20588495 11.12393829 -137.3125 13.1875 C-137.04066895 13.81374268 -136.76883789 14.43998535 -136.48876953 15.08520508 C-134.19114956 20.43089356 -132.1846604 25.85900856 -130.2734375 31.35546875 C-128.87270925 34.26434306 -127.75608344 35.37908503 -125 37 C-122.03523034 37.98825655 -120.10249639 38.12793192 -117.01005554 38.13371277 C-115.46446457 38.14011024 -115.46446457 38.14011024 -113.88764954 38.14663696 C-112.19275642 38.14595718 -112.19275642 38.14595718 -110.46362305 38.14526367 C-109.27313354 38.14862228 -108.08264404 38.1519809 -106.8560791 38.15544128 C-103.58941923 38.1633212 -100.32279747 38.16661935 -97.05612922 38.16725707 C-95.01428756 38.16796786 -92.97245257 38.17010274 -90.93061256 38.17275429 C-83.80440473 38.18200796 -76.6782156 38.18608927 -69.55200195 38.18530273 C-62.9145097 38.18470237 -56.27709883 38.19524596 -49.63962716 38.2110464 C-43.93760537 38.22413515 -38.23561014 38.22948605 -32.53357345 38.22884732 C-29.12961423 38.22859267 -25.72572729 38.23142569 -22.32178307 38.24202538 C-18.52264011 38.25181401 -14.72370682 38.24895138 -10.92456055 38.24291992 C-9.23877647 38.25134918 -9.23877647 38.25134918 -7.51893616 38.25994873 C-0.0371098 38.3026485 -0.0371098 38.3026485 7 36 C9.35316749 28.94049752 7.73149769 23.15566153 5.125 16.5 C3.04667627 11.04067116 1.32138227 5.69605559 0 0 Z " fill="#000E24" transform="translate(831,824)"/>
<path d="M0 0 C10.20907118 2.69406045 17.96655859 8.28013577 24 17 C29.22878908 26.53882452 31.72359532 37.10558559 28.77734375 47.79296875 C24.85831747 58.91985242 18.48648188 67.99778047 7.875 73.5625 C3.54862247 75.50417386 -0.21594871 76.81946976 -5 77 C-5.69480469 77.03738281 -6.38960937 77.07476563 -7.10546875 77.11328125 C-17.87730882 77.46554452 -28.06359225 74.50845969 -36.11328125 67.0390625 C-37.85573283 65.09139714 -39.44556188 63.09955615 -41 61 C-41.7425 60.071875 -42.485 59.14375 -43.25 58.1875 C-47.9522025 49.62277401 -48.7116257 40.6343172 -48 31 C-47.505 29.515 -47.505 29.515 -47 28 C-46.34 28 -45.68 28 -45 28 C-44.97421875 29.25554688 -44.9484375 30.51109375 -44.921875 31.8046875 C-44.64590753 44.91380776 -44.64590753 44.91380776 -40 57 C-39.41798828 58.051875 -39.41798828 58.051875 -38.82421875 59.125 C-34.34569134 66.10040553 -26.75593 70.41469 -19 73 C-4.45168005 73.89420631 -4.45168005 73.89420631 9 69 C9.71414063 68.5875 10.42828125 68.175 11.1640625 67.75 C16.89072425 63.97512184 19.88781908 59.00631094 23 53 C23.556875 51.95392578 23.556875 51.95392578 24.125 50.88671875 C27.575114 43.44741044 26.93413182 32.99292787 24.4375 25.375 C20.02099578 14.54993197 12.54730945 7.75473503 1.9375 3.125 C0.968125 2.75375 -0.00125 2.3825 -1 2 C-0.67 1.34 -0.34 0.68 0 0 Z " fill="#CA3703" transform="translate(637,591)"/>
<path d="M0 0 C0.33 0 0.66 0 1 0 C0.70175844 6.85955581 -2.23049648 11.38270063 -6 17 C-6.90298828 18.35351562 -6.90298828 18.35351562 -7.82421875 19.734375 C-16.86252653 32.7143383 -29.34981718 45.52423838 -45 50 C-47.79358973 50.37252877 -50.5287521 50.38224526 -53.34375 50.34057617 C-54.13495743 50.34101425 -54.92616486 50.34145233 -55.74134827 50.34190369 C-58.32782633 50.33983208 -60.91363674 50.31657921 -63.5 50.29296875 C-65.30460252 50.28736698 -67.10920963 50.28309963 -68.91381836 50.28010559 C-73.6419556 50.26870253 -78.36981226 50.23927484 -83.09783936 50.20599365 C-87.93107306 50.17519448 -92.7643525 50.16157928 -97.59765625 50.14648438 C-107.06522681 50.11440044 -116.53258998 50.06325951 -126 50 C-126.19698486 49.38946777 -126.39396973 48.77893555 -126.59692383 48.14990234 C-126.86013428 47.34504395 -127.12334473 46.54018555 -127.39453125 45.7109375 C-127.65339111 44.91478027 -127.91225098 44.11862305 -128.17895508 43.29833984 C-129.02965695 40.77158285 -129.02965695 40.77158285 -130.6875 37.625 C-132 35 -132 35 -132 32 C-131.34 32 -130.68 32 -130 32 C-129.17988688 33.55851755 -128.36923787 35.12201716 -127.5625 36.6875 C-126.88380859 37.99267578 -126.88380859 37.99267578 -126.19140625 39.32421875 C-125.0358186 41.91955496 -124.5071589 44.21979156 -124 47 C-114.00285059 47.09298497 -104.00580532 47.16390896 -94.00831032 47.20724869 C-89.36524727 47.22805746 -84.72248172 47.25625132 -80.07958984 47.30175781 C-75.59268678 47.34545647 -71.10606853 47.36918749 -66.61896896 47.37950897 C-64.91346127 47.38685748 -63.20796785 47.40120675 -61.50258255 47.42292023 C-50.0903265 47.56234761 -40.27395954 47.04756461 -31.0625 39.5 C-30.35222656 38.9328125 -29.64195312 38.365625 -28.91015625 37.78125 C-26.99243299 35.99294365 -25.56511538 34.09416847 -24 32 C-23.2575 31.608125 -22.515 31.21625 -21.75 30.8125 C-11.79172833 24.24909367 -5.50368633 10.27185697 0 0 Z " fill="#001330" transform="translate(813,566)"/>
<path d="M0 0 C9.00590187 -0.09286334 18.01163779 -0.1638474 27.01791477 -0.20724869 C31.20034819 -0.22808392 35.38245296 -0.25632644 39.56469727 -0.30175781 C43.60420377 -0.3453618 47.64339505 -0.36916766 51.68311882 -0.37950897 C53.22085466 -0.38687437 54.75857412 -0.40125734 56.296175 -0.42292023 C71.27556852 -0.62548264 71.27556852 -0.62548264 77 4 C81.42153187 9.59031586 83.26946736 17.34147454 85.5456543 24.02905273 C87.90029185 30.90760834 90.62494067 37.61836386 93.46020508 44.31201172 C96.50811774 51.68975982 96.50811774 51.68975982 96 56 C92.83975154 54.41987577 92.32169129 51.21398994 91.125 48.0625 C90.59399565 46.69261309 90.06274496 45.32282164 89.53125 43.953125 C89.27214844 43.27958984 89.01304687 42.60605469 88.74609375 41.91210938 C87.45277258 38.59755067 86.05528836 35.32525186 84.6640625 32.05078125 C84 30 84 30 84 26 C83.34 26 82.68 26 82 26 C81.62488281 24.74703125 81.24976563 23.4940625 80.86328125 22.203125 C80.34724377 20.55180507 79.83026716 18.90077841 79.3125 17.25 C79.06822266 16.425 78.82394531 15.6 78.57226562 14.75 C76.97987547 9.75110432 75.65631407 6.85848037 71 4 C68.17738993 2.58869497 65.77918516 2.83605673 62.62255859 2.79467773 C61.96877731 2.78477814 61.31499603 2.77487854 60.6414032 2.76467896 C58.47711833 2.73305289 56.3128115 2.70830228 54.1484375 2.68359375 C52.64913355 2.66302517 51.14983541 2.64202872 49.65054321 2.62062073 C45.70174869 2.56539012 41.75290174 2.51598524 37.80401611 2.46777344 C33.77554654 2.41756561 29.74715322 2.3618758 25.71875 2.30664062 C17.81256444 2.19904697 9.90631515 2.09760471 2 2 C1.87625 2.94875 1.7525 3.8975 1.625 4.875 C1 8 1 8 -1 10 C-2.17592676 5.88425634 -1.70182603 3.86483393 0 0 Z " fill="#001734" transform="translate(687,641)"/>
<path d="M0 0 C1.04475584 2.69736963 1.06611688 3.8153191 0.07421875 6.5859375 C-0.61220703 7.96652344 -0.61220703 7.96652344 -1.3125 9.375 C-3.23226642 13.28054201 -4.60209296 16.80627887 -6 21 C-47.25 21 -88.5 21 -131 21 C-131 20.67 -131 20.34 -131 20 C-127.58538839 19.23317835 -124.41602813 18.86785111 -120.91899109 18.84178162 C-119.91924759 18.8319928 -118.91950409 18.82220398 -117.88946533 18.81211853 C-116.26134918 18.80348534 -116.26134918 18.80348534 -114.6003418 18.79467773 C-112.87286461 18.77982834 -112.87286461 18.77982834 -111.11048889 18.76467896 C-107.30675304 18.73311065 -103.5030047 18.70832485 -99.69921875 18.68359375 C-97.06077247 18.6630202 -94.42232945 18.64202362 -91.78388977 18.62062073 C-85.55087085 18.57077201 -79.3178267 18.52580428 -73.08475858 18.48259836 C-65.98680344 18.43315901 -58.88889375 18.37826579 -51.7909826 18.32291877 C-37.19403145 18.20921885 -22.59703507 18.10235385 -8 18 C-7.63648438 16.67935547 -7.63648438 16.67935547 -7.265625 15.33203125 C-6.93046875 14.17058594 -6.5953125 13.00914062 -6.25 11.8125 C-5.92515625 10.66394531 -5.6003125 9.51539063 -5.265625 8.33203125 C-3.96781368 4.91526256 -2.42528808 2.70552095 0 0 Z " fill="#001636" transform="translate(574,595)"/>
<path d="M0 0 C0.66 0 1.32 0 2 0 C2 67.32 2 134.64 2 204 C1.67 204 1.34 204 1 204 C0.99576806 203.01232698 0.99153612 202.02465397 0.98717594 201.00705147 C0.88410927 177.00552316 0.77537735 153.00402566 0.66066074 129.00255013 C0.60531729 117.39575342 0.55183346 105.78895364 0.50268555 94.18212891 C0.45985745 84.06890145 0.41358296 73.95569674 0.36312145 63.84250438 C0.33650943 58.48470259 0.31165609 53.12690535 0.29092598 47.7690773 C0.27137914 42.73112173 0.24724127 37.69320948 0.21950912 32.65529251 C0.21012832 30.80169967 0.20245676 28.94809731 0.19658089 27.09449005 C0.18833716 24.57280265 0.17406545 22.05122089 0.15821838 19.52957153 C0.15724028 18.78833514 0.15626217 18.04709875 0.15525442 17.28340065 C0.1833236 13.51607387 0.1833236 13.51607387 -1 10 C-0.9129796 8.28766312 -0.75902838 6.57824594 -0.5625 4.875 C-0.46066406 3.96492187 -0.35882813 3.05484375 -0.25390625 2.1171875 C-0.17011719 1.41851563 -0.08632813 0.71984375 0 0 Z " fill="#C22300" transform="translate(433,652)"/>
<path d="M0 0 C0.33 0.99 0.66 1.98 1 3 C1.66 3 2.32 3 3 3 C4.14674548 7.56463369 4.14786569 12.05952619 4.14526367 16.73413086 C4.14862228 17.60304459 4.1519809 18.47195831 4.15544128 19.36720276 C4.16492274 22.23309772 4.16689288 25.09893409 4.16796875 27.96484375 C4.1711829 29.96114628 4.17454709 31.95744857 4.17805481 33.95375061 C4.18403878 38.13575792 4.18589542 42.31774458 4.18530273 46.49975586 C4.18520107 51.85410653 4.19886141 57.20832474 4.21607494 62.562644 C4.22720098 66.68478502 4.22922177 70.80689405 4.22869301 74.92904854 C4.2298719 76.90297465 4.23428856 78.87690161 4.24202538 80.85081291 C4.25183887 83.61279428 4.24894198 86.37448847 4.24291992 89.13647461 C4.24853943 89.9486142 4.25415894 90.76075378 4.25994873 91.59750366 C4.23004069 97.00439706 4.02159529 101.97840471 0 106 C0.07064667 105.42120087 0.14129333 104.84240173 0.21408081 104.24606323 C1.20848173 94.98185826 1.14526199 85.74963906 1.1328125 76.4453125 C1.1334878 74.65371691 1.13445971 72.86212141 1.13571167 71.07052612 C1.13717875 67.33037436 1.13506661 63.59024661 1.13037109 59.85009766 C1.12468274 55.09077598 1.1279535 50.33151083 1.13394356 45.57219124 C1.13758311 41.87612494 1.13639496 38.1800717 1.13381577 34.48400497 C1.13315542 32.73078276 1.13394316 30.9775593 1.13629532 29.22433853 C1.14655632 19.42690932 0.95748227 9.75949458 0 0 Z " fill="#001431" transform="translate(818,446)"/>
<path d="M0 0 C0.99 0.33 1.98 0.66 3 1 C4.1340695 3.36102687 5.0709534 5.62542071 5.9609375 8.078125 C6.23338287 8.80054382 6.50582825 9.52296265 6.78652954 10.26727295 C7.66014167 12.59097446 8.51781648 14.92019445 9.375 17.25 C9.94425208 18.77383406 10.51455357 20.29727653 11.0859375 21.8203125 C12.20410589 24.80441708 13.31721764 27.79032789 14.42626953 30.77783203 C17.57686364 39.25017748 20.79050088 47.68657072 24.3984375 55.9765625 C25 58 25 58 24 61 C21.74740802 58.1976324 20.23387955 55.54426854 18.87890625 52.21875 C18.5027417 51.2999707 18.12657715 50.38119141 17.73901367 49.43457031 C17.35076416 48.46616211 16.96251465 47.49775391 16.5625 46.5 C16.16071533 45.50838867 15.75893066 44.51677734 15.3449707 43.49511719 C12.96323784 37.56435452 10.75394075 31.61821557 8.82421875 25.5234375 C7.12690424 20.32692009 4.96025738 15.30527543 2.859375 10.26171875 C2.31023438 8.92560547 2.31023438 8.92560547 1.75 7.5625 C1.41484375 6.75941406 1.0796875 5.95632813 0.734375 5.12890625 C0 3 0 3 0 0 Z " fill="#001734" transform="translate(787,709)"/>
<path d="M0 0 C0 0.99 0 1.98 0 3 C-1.06476562 2.99097656 -2.12953125 2.98195313 -3.2265625 2.97265625 C-14.73349367 3.11391099 -23.95871582 5.07335926 -33.0234375 12.703125 C-36.85107349 16.86106461 -39.43673926 21.99823899 -42 27 C-42.33 27 -42.66 27 -43 27 C-42.69433845 19.66412276 -39.40762154 15.39202602 -34.29296875 10.30078125 C-23.7749201 0.87490018 -13.7581535 -0.34781849 0 0 Z " fill="#C83803" transform="translate(635,590)"/>
<path d="M0 0 C0.33 0 0.66 0 1 0 C1.2005651 16.37638001 1.38388166 32.75284766 1.54658794 49.12964344 C1.62253643 56.73343711 1.70415779 64.3370913 1.79907227 71.94067383 C1.88177206 78.56688745 1.95389105 85.19311665 2.01323253 91.81958216 C2.04503381 95.32924386 2.08218131 98.83866744 2.13199425 102.34812355 C2.18736358 106.26299545 2.21911283 110.17786222 2.2487793 114.09301758 C2.26891586 115.2604248 2.28905243 116.42783203 2.30979919 117.63061523 C2.31408936 118.69492264 2.31837952 119.75923004 2.32279968 120.85578918 C2.33800927 122.24539211 2.33800927 122.24539211 2.35352612 123.66306782 C1.93602059 126.42292647 1.14817757 127.2892579 -1 129 C-1.33 128.34 -1.66 127.68 -2 127 C-1.505 126.01 -1.505 126.01 -1 125 C-0.89531761 123.34046432 -0.85344449 121.67680071 -0.84178162 120.01400757 C-0.8319928 118.95948898 -0.82220398 117.9049704 -0.81211853 116.8184967 C-0.80636307 115.65684494 -0.8006076 114.49519318 -0.79467773 113.29833984 C-0.78477814 112.07885147 -0.77487854 110.8593631 -0.76467896 109.60292053 C-0.7384565 106.25397739 -0.71660881 102.90505854 -0.69667697 99.55607557 C-0.674833 96.05799747 -0.64743655 92.55996305 -0.62062073 89.06192017 C-0.5706723 82.43568317 -0.52574147 75.80942196 -0.48259836 69.18313754 C-0.43324434 61.64027965 -0.37831942 54.09746559 -0.32291877 46.55465007 C-0.20906574 31.03647386 -0.10223395 15.51825737 0 0 Z " fill="#C83A02" transform="translate(612,731)"/>
<path d="M0 0 C0.66 0 1.32 0 2 0 C2.82011312 1.55851755 3.63076213 3.12201716 4.4375 4.6875 C5.11619141 5.99267578 5.11619141 5.99267578 5.80859375 7.32421875 C6.95991928 9.90998264 7.56320753 12.21356528 8 15 C16.52997974 16.0812863 25.04823508 16.21548401 33.6328125 16.31640625 C35.12068191 16.3370231 36.60854608 16.35802064 38.09640503 16.37937927 C41.97932654 16.43411219 45.86229652 16.48373285 49.74530029 16.53222656 C53.72086817 16.5828019 57.69636717 16.63829829 61.671875 16.69335938 C69.44785805 16.80034262 77.22389906 16.90191589 85 17 C85 17.33 85 17.66 85 18 C58.93 18 32.86 18 6 18 C5.01 15.03 4.02 12.06 3 9 C2.443125 7.88625 1.88625 6.7725 1.3125 5.625 C0 3 0 3 0 0 Z " fill="#001D3A" transform="translate(681,598)"/>
<path d="M0 0 C1 3 1 3 -0.046875 5.53125 C-6.96801035 17.59561437 -17.31554752 29.57785378 -31 34 C-31.99 33.67 -32.98 33.34 -34 33 C-32.53226121 30.06452241 -30.39416967 29.66316887 -27.4375 28.3125 C-18.14588544 23.73816668 -12.73333243 18.11955793 -6.859375 9.6484375 C-5.57491224 7.8188876 -4.22580599 6.03364993 -2.828125 4.2890625 C-0.98578288 2.14549452 -0.98578288 2.14549452 0 0 Z " fill="#001833" transform="translate(684,654)"/>
<path d="M0 0 C-1 3 -1 3 -2.6015625 3.9921875 C-3.26929688 4.28351562 -3.93703125 4.57484375 -4.625 4.875 C-7.62207584 6.26572944 -10.22305269 7.77775347 -12.875 9.75 C-16 12 -16 12 -18 12 C-18.268125 12.639375 -18.53625 13.27875 -18.8125 13.9375 C-20 16 -20 16 -23 17 C-23.28875 17.61875 -23.5775 18.2375 -23.875 18.875 C-25.35958123 21.67920898 -27.23974247 22.54723288 -30 24 C-28.22024578 17.47423451 -22.74300405 13.37390011 -17.6875 9.25 C-14.86327508 7.10030272 -14.86327508 7.10030272 -13 4 C-12.01 4 -11.02 4 -10 4 C-9.67 3.01 -9.34 2.02 -9 1 C-5.94152152 0.45627049 -3.11227195 0 0 0 Z " fill="#001A30" transform="translate(605,570)"/>
<path d="M0 0 C0.99 0.33 1.98 0.66 3 1 C4.00317383 3.06225586 4.00317383 3.06225586 4.89453125 5.77734375 C5.23307129 6.77362793 5.57161133 7.76991211 5.92041016 8.79638672 C6.2766748 9.8535791 6.63293945 10.91077148 7 12 C7.76643774 14.08770195 8.5412423 16.17235055 9.32421875 18.25390625 C9.71287109 19.29224609 10.10152344 20.33058594 10.50195312 21.40039062 C10.89318359 22.44388672 11.28441406 23.48738281 11.6875 24.5625 C12.09033203 25.64080078 12.49316406 26.71910156 12.90820312 27.83007812 C13.29298828 28.85681641 13.67777344 29.88355469 14.07421875 30.94140625 C14.42057373 31.86638916 14.76692871 32.79137207 15.1237793 33.74438477 C15.95458365 35.9866612 15.95458365 35.9866612 17 38 C17.039992 39.99960012 17.04346799 42.00047242 17 44 C13.66266378 40.66266378 12.57963437 36.11531605 10.9375 31.75 C10.57333984 30.80769531 10.20917969 29.86539063 9.83398438 28.89453125 C8.0825378 24.27796413 6.5392374 19.9443922 6 15 C5.34 15 4.68 15 4 15 C3.32779649 13.06441401 2.66241923 11.12645628 2 9.1875 C1.62875 8.10855469 1.2575 7.02960937 0.875 5.91796875 C0 3 0 3 0 0 Z " fill="#001532" transform="translate(814,779)"/>
<path d="M0 0 C0.33 0 0.66 0 1 0 C1.33 5.61 1.66 11.22 2 17 C4.475 17.99 4.475 17.99 7 19 C9.57911787 20.22084884 12.09914897 21.54794155 14.625 22.875 C15.29273438 23.21402344 15.96046875 23.55304687 16.6484375 23.90234375 C20.27193604 25.80830398 22.88051497 27.44627699 25 31 C21.55198444 30.67674854 19.30939552 29.64872282 16.5 27.75 C11.09261972 24.18320877 5.06769449 22.17364056 -1 20 C-0.67 19.34 -0.34 18.68 0 18 C0.08308638 16.62451844 0.10736016 15.24514204 0.09765625 13.8671875 C0.09443359 13.06152344 0.09121094 12.25585938 0.08789062 11.42578125 C0.07951172 10.58402344 0.07113281 9.74226562 0.0625 8.875 C0.05798828 8.02550781 0.05347656 7.17601562 0.04882812 6.30078125 C0.03702874 4.20049091 0.01909306 2.1002367 0 0 Z " fill="#012340" transform="translate(642,549)"/>
<path d="M0 0 C0.99 0.66 1.98 1.32 3 2 C2.01 2 1.02 2 0 2 C-0.93121245 17.98442943 -0.93121245 17.98442943 3.22265625 33.171875 C3.47917969 33.77515625 3.73570312 34.3784375 4 35 C3.67 35.66 3.34 36.32 3 37 C-2.66337703 29.07127216 -3.34201888 22.75508021 -3.3125 13.25 C-3.32861328 12.19683594 -3.34472656 11.14367187 -3.36132812 10.05859375 C-3.36197266 9.05441406 -3.36261719 8.05023437 -3.36328125 7.015625 C-3.36626221 6.10071289 -3.36924316 5.18580078 -3.37231445 4.24316406 C-3.24945068 3.50291992 -3.12658691 2.76267578 -3 2 C-2.01 1.34 -1.02 0.68 0 0 Z " fill="#001E39" transform="translate(643,688)"/>
<path d="M0 0 C0.66 0 1.32 0 2 0 C2.40992188 1.12019531 2.81984375 2.24039063 3.2421875 3.39453125 C3.78625401 4.867263 4.33053611 6.33991511 4.875 7.8125 C5.27912109 8.91948242 5.27912109 8.91948242 5.69140625 10.04882812 C5.95566406 10.76103516 6.21992187 11.47324219 6.4921875 12.20703125 C6.73308105 12.8616333 6.97397461 13.51623535 7.22216797 14.19067383 C8.05526168 16.27895937 8.05526168 16.27895937 10 19 C10.6163599 20.62642986 11.17511761 22.2753815 11.6875 23.9375 C11.95949219 24.79214844 12.23148438 25.64679687 12.51171875 26.52734375 C13.02075548 29.10510574 12.84888744 30.54449337 12 33 C10.30299357 30.45449036 9.24259359 28.3516731 8.125 25.54296875 C7.60679687 24.24456055 7.60679687 24.24456055 7.078125 22.91992188 C6.72234375 22.01822266 6.3665625 21.11652344 6 20.1875 C5.46632813 18.85235352 5.46632813 18.85235352 4.921875 17.49023438 C0 5.10290345 0 5.10290345 0 0 Z " fill="#001933" transform="translate(675,795)"/>
<path d="M0 0 C10.37517197 2.7378926 17.64686313 8.36341683 24 17 C24.33 17.99 24.66 18.98 25 20 C24.01 20 23.02 20 22 20 C20.4921875 18.2421875 20.4921875 18.2421875 18.875 15.875 C13.66718082 8.88729325 7.03497084 5.07722287 -1 2 C-0.67 1.34 -0.34 0.68 0 0 Z " fill="#C13602" transform="translate(637,591)"/>
<path d="M0 0 C27.16403693 -0.20638953 27.16403693 -0.20638953 38 1 C38 1.33 38 1.66 38 2 C34.08388313 2.2003489 30.16711603 2.38283613 26.25 2.5625 C25.15816406 2.61857422 24.06632813 2.67464844 22.94140625 2.73242188 C15.66353874 3.05540416 8.1921045 3.36855385 1 2 C0.67 1.34 0.34 0.68 0 0 Z " fill="#001432" transform="translate(753,863)"/>
<path d="M0 0 C0.33 0.66 0.66 1.32 1 2 C1.66 2 2.32 2 3 2 C3.25394531 2.70125 3.50789062 3.4025 3.76953125 4.125 C4.11371094 5.07375 4.45789063 6.0225 4.8125 7 C5.1734375 8.0003125 5.534375 9.000625 5.90625 10.03125 C6.83126819 12.54201367 7.81257408 15.01870236 8.8125 17.5 C10 21 10 21 9 24 C5.67014281 22.33507141 5.18940423 18.59446337 4 15.25 C3.47958041 13.81755795 2.95875606 12.38526288 2.4375 10.953125 C2.19386719 10.27185547 1.95023438 9.59058594 1.69921875 8.88867188 C1.10188122 7.27519312 0.43288628 5.68854952 -0.25 4.109375 C-0.4975 3.41328125 -0.745 2.7171875 -1 2 C-0.67 1.34 -0.34 0.68 0 0 Z " fill="#001730" transform="translate(665,770)"/>
<path d="M0 0 C3.42689787 3.66323566 4.85286903 7.02263216 6.26953125 11.71875 C6.95773476 13.86800589 7.79424605 15.83375175 8.75 17.875 C10 21 10 21 9 24 C5.72170072 19.45751995 3.60579574 15.00007257 1.6875 9.75 C1.41099609 9.03070312 1.13449219 8.31140625 0.84960938 7.5703125 C0.16792398 5.73645859 -0.42360344 3.86962085 -1 2 C-0.67 1.34 -0.34 0.68 0 0 Z " fill="#001632" transform="translate(655,745)"/>
<path d="M0 0 C3.86696961 1.07415822 6.0508589 2.58723668 8.21972656 5.99853516 C9.8839551 10.26741673 9.11397522 14.89752707 8.75 19.375 C8.68425781 20.39722656 8.61851562 21.41945313 8.55078125 22.47265625 C8.38650363 24.98375704 8.20239261 27.49173184 8 30 C7.67 30 7.34 30 7 30 C6.98541748 29.39003174 6.97083496 28.78006348 6.95581055 28.15161133 C6.88105225 25.37128936 6.78448518 22.59213176 6.6875 19.8125 C6.66494141 18.85279297 6.64238281 17.89308594 6.61914062 16.90429688 C6.38165344 9.95895897 6.38165344 9.95895897 3 4 C0.93045153 2.21655822 0.93045153 2.21655822 -1 1 C-0.67 0.67 -0.34 0.34 0 0 Z " fill="#001834" transform="translate(606,367)"/>
<path d="M0 0 C0.66 0 1.32 0 2 0 C2 0.66 2 1.32 2 2 C3.32 2.66 4.64 3.32 6 4 C6 4.66 6 5.32 6 6 C6.99 6.33 7.98 6.66 9 7 C10.75 9.375 10.75 9.375 12 12 C11.67 12.99 11.34 13.98 11 15 C10.505 14.34 10.01 13.68 9.5 13 C6.23730129 9.08476155 2.64074947 5.56121854 -1 2 C-0.67 1.34 -0.34 0.68 0 0 Z " fill="#001939" transform="translate(668,581)"/>
<path d="M0 0 C6.14777908 2.98074137 10.27807625 8.41711437 14 14 C13.01 14.33 12.02 14.66 11 15 C9.56041153 13.41856529 8.12341355 11.83477221 6.6875 10.25 C5.88699219 9.36828125 5.08648438 8.4865625 4.26171875 7.578125 C2.39083089 5.44550672 0.65915714 3.29812057 -1 1 C-0.67 0.67 -0.34 0.34 0 0 Z " fill="#00163C" transform="translate(786,390)"/>
<path d="M0 0 C3.61662945 0.58147223 6.42443919 1.53624374 9.625 3.3125 C10.38039063 3.72113281 11.13578125 4.12976563 11.9140625 4.55078125 C14.17054875 6.11848986 15.47954993 7.72900929 17 10 C12.99251347 9.41512359 10.14263232 8.15605425 6.6875 6.0625 C5.80449219 5.53785156 4.92148437 5.01320313 4.01171875 4.47265625 C3.34785156 3.98667969 2.68398438 3.50070312 2 3 C2 2.34 2 1.68 2 1 C1.34 0.67 0.68 0.34 0 0 Z " fill="#00182F" transform="translate(650,570)"/>
<path d="M0 0 C0.99 0 1.98 0 3 0 C5.53309233 4.64203897 7.46515599 8.65155992 8 14 C7.01 14.495 7.01 14.495 6 15 C4.02 10.05 2.04 5.1 0 0 Z " fill="#00122B" transform="translate(646,728)"/>
<path d="M0 0 C0.33 0 0.66 0 1 0 C1.16435547 0.90878906 1.16435547 0.90878906 1.33203125 1.8359375 C2.50441057 8.03143795 4.08338447 13.99460467 6 20 C1.30993216 16.4420175 0.03506289 11.57881352 -1 6 C-0.6875 2.375 -0.6875 2.375 0 0 Z " fill="#001739" transform="translate(641,705)"/>
<path d="M0 0 C0.66 0 1.32 0 2 0 C2.83819158 1.62249941 3.6704116 3.24808497 4.5 4.875 C4.9640625 5.77992188 5.428125 6.68484375 5.90625 7.6171875 C7 10 7 10 7 12 C6.01 12.33 5.02 12.66 4 13 C3.32694982 11.39850114 2.66177773 9.79368971 2 8.1875 C1.62875 7.29417969 1.2575 6.40085937 0.875 5.48046875 C0 3 0 3 0 0 Z " fill="#00223A" transform="translate(681,598)"/>
<path d="M0 0 C2.54384726 1.27192363 2.69368156 2.19948469 3.6875 4.8125 C3.95949219 5.49957031 4.23148438 6.18664062 4.51171875 6.89453125 C5.06812731 9.29376496 4.77364938 10.6894364 4 13 C1.08410391 8.62615587 -0.30254716 5.29457529 0 0 Z " fill="#001229" transform="translate(683,815)"/>
<path d="M0 0 C0.99 0.33 1.98 0.66 3 1 C3.94921875 3.28515625 3.94921875 3.28515625 4.6875 6.0625 C4.93886719 6.98160156 5.19023438 7.90070312 5.44921875 8.84765625 C5.63097656 9.55792969 5.81273437 10.26820313 6 11 C5.01 11.495 5.01 11.495 4 12 C3.32645501 10.56570999 2.66140299 9.12742943 2 7.6875 C1.62875 6.88699219 1.2575 6.08648438 0.875 5.26171875 C0 3 0 3 0 0 Z " fill="#000F2B" transform="translate(806,758)"/>
<path d="M0 0 C3.80984844 2.77079887 4.06840752 6.62868145 5 11 C4.01 11 3.02 11 2 11 C1.01 7.7 0.02 4.4 -1 1 C-0.67 0.67 -0.34 0.34 0 0 Z " fill="#D34405" transform="translate(661,611)"/>
<path d="M0 0 C0.33 0.99 0.66 1.98 1 3 C1.66 3 2.32 3 3 3 C4.125 9.625 4.125 9.625 3 13 C2.34 13 1.68 13 1 13 C0.67 8.71 0.34 4.42 0 0 Z " fill="#000E2C" transform="translate(818,446)"/>
<path d="M0 0 C0.66 0.33 1.32 0.66 2 1 C1.21625 1.9075 0.4325 2.815 -0.375 3.75 C-2.30052496 6.05190236 -3.82205741 8.21577207 -5 11 C-5.8125 8.8125 -5.8125 8.8125 -6 6 C-3.625 3.25 -3.625 3.25 -1 1 C-0.67 0.67 -0.34 0.34 0 0 Z " fill="#001536" transform="translate(647,367)"/>
<path d="M0 0 C0.66 0.33 1.32 0.66 2 1 C1.195625 1.763125 0.39125 2.52625 -0.4375 3.3125 C-3.16799024 5.79430898 -3.16799024 5.79430898 -4 9 C-4.66 9 -5.32 9 -6 9 C-5.69381595 5.32579134 -5.24228216 4.21864487 -2.4375 1.6875 C-1.633125 1.130625 -0.82875 0.57375 0 0 Z " fill="#00152D" transform="translate(440,367)"/>
<path d="M0 0 C0.99 0.33 1.98 0.66 3 1 C4.1875 4.5625 4.1875 4.5625 5 8 C4.34 8.66 3.68 9.32 3 10 C2.49596232 8.70990357 1.99690074 7.41786211 1.5 6.125 C1.2215625 5.40570312 0.943125 4.68640625 0.65625 3.9453125 C0 2 0 2 0 0 Z " fill="#000B26" transform="translate(831,824)"/>
<path d="M0 0 C0.33 0.99 0.66 1.98 1 3 C-1.31 3.66 -3.62 4.32 -6 5 C-6.66 4.34 -7.32 3.68 -8 3 C-3.375 0 -3.375 0 0 0 Z " fill="#001C32" transform="translate(614,566)"/>
<path d="M0 0 C3.82946843 1.45255699 5.12050295 3.42895561 7 7 C6.01 7.33 5.02 7.66 4 8 C0 2.25 0 2.25 0 0 Z " fill="#00112B" transform="translate(798,404)"/>
<path d="M0 0 C0.33 0 0.66 0 1 0 C1.25 7.625 1.25 7.625 -1 11 C-2.26264601 6.70700357 -1.62950412 4.12168689 0 0 Z " fill="#000D22" transform="translate(817,553)"/>
<path d="M0 0 C0.66 1.32 1.32 2.64 2 4 C2.66 4 3.32 4 4 4 C4.625 6.375 4.625 6.375 5 9 C4.34 9.66 3.68 10.32 3 11 C2.49384702 9.73160474 1.99530901 8.46016898 1.5 7.1875 C1.2215625 6.47980469 0.943125 5.77210938 0.65625 5.04296875 C0 3 0 3 0 0 Z " fill="#000C29" transform="translate(814,433)"/>
<path d="M0 0 C0.33 0.66 0.66 1.32 1 2 C1.66 2 2.32 2 3 2 C3.33 4.64 3.66 7.28 4 10 C1.16625119 6.79663178 0.4794463 4.21912747 0 0 Z " fill="#000E29" transform="translate(824,805)"/>
<path d="M0 0 C2.25245881 2.68841859 3.88213958 4.64641875 5 8 C4.01 8 3.02 8 2 8 C0.23537317 4.91190305 0 3.76687864 0 0 Z " fill="#001028" transform="translate(766,654)"/>
<path d="M0 0 C0.8125 1.6875 0.8125 1.6875 1 4 C-1.4375 6.75 -1.4375 6.75 -4 9 C-3.46930939 5.17902761 -2.50298434 2.93828597 0 0 Z " fill="#00142A" transform="translate(574,595)"/>
<path d="M0 0 C0.33 0 0.66 0 1 0 C1.33 3.63 1.66 7.26 2 11 C1.34 11 0.68 11 0 11 C-1.05404945 7.01803543 -0.84098656 4.01804691 0 0 Z " fill="#000D2E" transform="translate(641,705)"/>
<path d="M0 0 C0.99 0.33 1.98 0.66 3 1 C3.33 2.65 3.66 4.3 4 6 C3.01 6 2.02 6 1 6 C0.67 4.02 0.34 2.04 0 0 Z " fill="#000F24" transform="translate(783,698)"/>
</svg>
