<?xml version="1.0" standalone="no"?>
<!DOCTYPE svg PUBLIC "-//W3C//DTD SVG 20010904//EN"
 "http://www.w3.org/TR/2001/REC-SVG-20010904/DTD/svg10.dtd">
<svg version="1.0" xmlns="http://www.w3.org/2000/svg"
 width="270.000000pt" height="251.000000pt" viewBox="0 0 270.000000 251.000000"
 preserveAspectRatio="xMidYMid meet">
<g transform="translate(0.000000,251.000000) scale(0.100000,-0.100000)"
fill="#6521a1" stroke="none">
<path d="M1150 2285 c-227 -39 -407 -131 -571 -295 -205 -205 -304 -428 -316
-715 -13 -320 90 -581 321 -810 331 -328 830 -405 1241 -192 412 214 643 665
570 1114 -29 177 -87 322 -183 458 -239 338 -653 510 -1062 440z m275 -10
c107 -5 171 -19 288 -61 47 -16 57 -36 22 -42 -12 -3 -15 0 -10 9 5 8 4 10 -3
5 -7 -4 -28 -3 -48 3 -20 6 -34 7 -30 4 8 -8 -45 -43 -56 -37 -4 3 -8 1 -8 -4
0 -5 -12 -17 -26 -27 -18 -11 -24 -12 -18 -4 9 15 33 35 49 40 15 4 35 26 35
38 0 9 -60 31 -87 31 -7 0 -13 4 -13 9 0 17 -88 -8 -115 -33 -15 -14 -31 -23
-35 -21 -5 3 -10 2 -12 -2 -6 -15 -116 -92 -122 -86 -3 4 -6 1 -6 -5 0 -7 -5
-12 -10 -12 -6 0 -21 -9 -33 -21 -40 -38 -75 -60 -81 -50 -4 5 5 16 18 23 44
24 224 147 231 158 3 6 9 9 13 6 4 -2 15 4 25 14 17 17 17 19 -14 41 -18 13
-29 18 -25 11 5 -9 -11 -12 -61 -13 -37 -1 -81 -3 -98 -5 -52 -6 -182 -42
-247 -68 -34 -14 -65 -23 -69 -20 -4 2 -13 -5 -19 -16 -7 -13 -17 -19 -26 -16
-8 3 -13 2 -10 -3 5 -8 -8 -17 -27 -19 -4 -1 -22 -12 -38 -26 -17 -15 -37 -26
-45 -26 -9 0 -13 -4 -10 -9 3 -5 -4 -16 -17 -24 -43 -29 -105 -95 -184 -197
-2 -2 -9 2 -14 10 -9 12 -10 12 -5 -3 7 -21 -23 -79 -36 -71 -4 3 -5 -2 -2
-10 3 -9 2 -16 -4 -16 -5 0 -13 -11 -16 -25 -4 -17 -11 -23 -19 -18 -9 5 -9 3
0 -9 7 -8 9 -18 5 -23 -12 -12 59 6 123 31 92 37 316 165 483 276 77 51 82 53
82 39 0 -9 -163 -121 -175 -121 -3 0 -24 -13 -47 -30 -22 -16 -45 -30 -51 -30
-5 0 -15 -6 -21 -14 -21 -27 -319 -172 -361 -176 -3 0 -11 0 -18 0 -18 0 -51
-30 -60 -52 -3 -10 -2 -18 4 -18 6 0 8 -4 5 -9 -8 -13 137 32 219 67 83 36
240 117 275 142 14 10 41 25 60 34 41 19 93 49 100 57 3 3 12 9 20 13 8 4 33
18 55 31 22 14 56 33 75 42 19 10 37 21 40 24 9 10 132 73 147 75 8 2 12 -1 8
-4 -4 -4 -10 -7 -13 -7 -4 0 -23 -10 -43 -23 -20 -12 -39 -22 -43 -22 -4 0
-12 -5 -19 -10 -7 -6 -34 -25 -62 -42 -27 -17 -66 -41 -85 -53 -153 -96 -345
-203 -445 -248 -111 -50 -264 -100 -290 -95 -18 4 -22 0 -21 -21 1 -24 4 -26
48 -24 97 4 344 106 606 250 125 69 148 78 156 65 4 -7 -115 -73 -130 -71 -4
0 -10 -3 -13 -8 -3 -4 -26 -18 -51 -31 -25 -13 -74 -39 -110 -57 -36 -19 -87
-44 -115 -56 -27 -12 -73 -32 -102 -45 -61 -28 -145 -52 -228 -66 -66 -11 -85
-22 -85 -48 0 -71 252 1 580 165 158 78 401 187 407 182 6 -6 -494 -253 -618
-306 -118 -49 -229 -81 -301 -85 -70 -3 -80 -10 -77 -55 1 -20 -1 -46 -5 -59
-4 -13 -3 -28 2 -35 6 -7 9 -39 7 -72 -2 -32 -1 -64 3 -70 4 -5 7 -31 8 -56 1
-25 14 -79 28 -120 15 -41 28 -78 29 -84 1 -5 8 -16 15 -23 6 -7 12 -22 12
-33 0 -10 6 -19 13 -19 8 0 7 -4 -3 -10 -13 -8 -12 -10 4 -10 12 0 16 -5 12
-16 -3 -8 -2 -12 4 -9 6 3 10 -1 10 -9 0 -8 4 -17 9 -20 5 -3 8 0 8 7 -4 44
69 220 108 261 42 43 82 55 217 65 237 19 357 51 682 180 226 91 390 145 485
161 77 13 180 8 209 -10 13 -8 9 -8 -13 -3 -52 13 -157 6 -240 -16 -80 -20
-298 -95 -365 -124 -69 -31 -237 -96 -310 -120 -166 -56 -261 -75 -437 -87
-73 -6 -145 -15 -160 -22 -61 -27 -103 -97 -141 -235 -17 -59 -18 -75 -7 -89
11 -16 15 -14 39 25 57 89 91 117 184 149 48 16 132 42 187 56 118 32 311 99
376 132 117 58 513 218 594 240 49 13 113 23 140 22 33 0 40 -2 20 -5 -115
-16 -298 -79 -530 -183 -336 -150 -508 -213 -710 -259 -69 -16 -123 -40 -168
-74 -39 -31 -97 -119 -97 -149 0 -10 -4 -18 -10 -18 -5 0 -10 -5 -10 -11 0 -8
4 -8 14 0 11 9 18 7 32 -12 33 -40 41 -40 80 3 47 52 137 104 322 187 81 37
251 118 377 181 396 197 538 254 668 267 l42 4 -35 -10 c-81 -23 -198 -62
-235 -79 -22 -10 -80 -36 -130 -58 -49 -22 -180 -84 -290 -139 -261 -129 -477
-228 -493 -227 -7 1 -11 0 -9 -3 3 -2 -22 -19 -56 -37 -67 -35 -90 -51 -151
-110 -37 -36 -39 -39 -22 -52 10 -7 15 -17 11 -23 -3 -6 0 -9 8 -5 9 3 23 -6
35 -21 24 -30 22 -31 112 40 75 60 229 158 248 158 6 0 12 4 12 8 0 8 134 89
148 89 5 0 20 8 33 19 13 10 49 32 79 49 30 17 100 56 155 87 204 115 373 187
502 214 45 10 80 15 78 11 -3 -4 -22 -11 -42 -15 -80 -14 -196 -62 -393 -163
-113 -57 -217 -113 -232 -123 -14 -11 -28 -19 -31 -19 -11 0 -320 -179 -427
-248 -89 -57 -177 -130 -183 -152 -3 -11 -1 -18 3 -15 5 3 25 -4 45 -16 34
-20 68 -22 125 -7 8 2 5 0 -7 -6 -46 -20 -19 -49 76 -81 50 -16 56 -16 88 -1
42 20 53 21 27 2 -27 -20 -10 -34 58 -46 46 -9 64 -8 95 5 20 9 40 19 43 23 3
5 40 30 82 57 43 27 86 56 96 65 25 24 63 43 70 36 3 -3 0 -6 -6 -6 -6 0 -17
-6 -24 -13 -7 -7 -59 -43 -115 -80 -57 -37 -103 -74 -103 -82 0 -45 321 7 464
76 21 10 44 16 50 12 6 -3 8 -3 4 2 -4 4 20 25 53 47 48 31 64 36 75 27 10 -8
14 -8 14 0 0 6 -5 11 -11 11 -5 0 -7 5 -4 10 4 6 11 7 17 4 7 -4 8 -2 4 4 -10
16 6 15 24 -1 12 -10 12 -9 2 4 -9 13 -2 24 41 67 29 29 56 49 60 46 4 -4 7
-1 7 8 0 8 14 25 30 38 17 13 28 25 26 28 -3 2 0 10 7 17 31 33 43 52 39 63
-2 7 1 12 7 12 6 0 11 4 11 10 0 24 -208 -34 -277 -77 -14 -10 -23 -11 -28 -4
-9 15 108 66 212 93 66 18 87 20 90 11 3 -7 9 -13 15 -13 6 0 8 6 5 14 -3 8 3
22 14 32 10 9 19 25 19 35 0 31 12 49 31 49 10 0 19 -2 19 -4 0 -10 -54 -111
-61 -114 -4 -2 -5 -10 -2 -18 4 -10 -2 -17 -17 -21 -16 -4 -18 -8 -8 -14 10
-7 11 -9 0 -9 -7 0 -11 -4 -7 -9 3 -5 0 -13 -6 -17 -8 -5 -9 -3 -4 6 5 8 4 11
-3 6 -6 -4 -8 -14 -5 -23 5 -13 2 -15 -11 -10 -10 4 -15 3 -11 -4 9 -13 -23
-61 -35 -54 -6 4 -10 -1 -10 -9 0 -8 -9 -20 -20 -26 -11 -6 -19 -15 -17 -21 1
-6 -7 -16 -17 -22 -24 -15 -58 -47 -50 -47 4 0 -22 -22 -57 -50 -78 -61 -175
-114 -191 -104 -6 4 -8 3 -5 -3 4 -6 -6 -16 -21 -21 -183 -73 -300 -95 -460
-88 -124 5 -194 15 -187 26 3 5 -3 6 -14 3 -37 -10 -278 87 -266 107 3 6 -1 7
-10 4 -21 -8 -158 82 -149 98 4 7 3 8 -4 4 -26 -16 -252 246 -264 306 -2 7 -6
15 -9 18 -11 9 -50 90 -43 90 3 0 -1 11 -9 23 -16 25 -39 98 -42 132 -1 11 -6
38 -13 60 -16 55 -22 236 -11 312 14 103 40 204 50 198 5 -4 6 0 4 8 -11 26
89 232 107 221 7 -4 8 -3 4 4 -22 37 268 334 310 318 8 -3 13 0 11 7 -1 7 6
11 16 10 10 0 16 1 13 4 -6 6 37 43 50 43 4 0 30 11 58 25 73 35 232 75 322
80 42 3 79 7 82 10 3 2 15 2 26 -1 12 -3 53 -7 91 -9z m-36 -44 c6 -1 -348
-237 -491 -327 -206 -129 -468 -259 -468 -232 0 27 123 192 200 269 173 172
387 269 635 288 77 6 101 6 124 2z m204 -30 c5 -5 -15 -22 -45 -39 -29 -16
-136 -76 -238 -132 -102 -57 -246 -139 -320 -183 -252 -149 -410 -226 -552
-270 -33 -10 -48 -11 -48 -3 0 21 15 31 65 44 70 18 270 116 400 197 109 67
468 307 555 372 43 31 48 33 110 27 36 -3 69 -9 73 -13z m220 -29 c15 -10 24
-22 20 -26 -4 -4 -1 -4 8 -1 9 3 28 -5 45 -20 16 -14 32 -25 36 -25 13 0 47
-43 42 -52 -7 -12 -44 10 -41 25 1 7 -4 11 -11 9 -7 -1 -27 9 -45 22 -18 13
-44 28 -59 31 -16 4 -25 12 -21 18 3 6 1 7 -5 3 -19 -12 -35 3 -21 20 15 18
18 18 52 -4z m-39 -40 l78 -37 -47 -53 c-81 -90 -171 -152 -505 -345 -489
-282 -664 -364 -838 -388 -73 -10 -132 -5 -132 11 0 31 14 40 62 40 59 0 177
29 268 65 101 41 556 262 642 313 79 45 111 72 89 72 -33 0 -342 -135 -566
-248 -227 -114 -475 -186 -475 -138 0 10 16 17 48 21 26 3 98 22 160 42 106
33 213 84 672 320 74 38 205 95 290 128 149 56 248 114 234 137 -3 5 -11 5
-17 0 -7 -6 -95 -40 -197 -77 -184 -66 -307 -123 -679 -315 -203 -103 -321
-152 -428 -174 -50 -11 -63 -11 -63 -1 0 7 19 15 46 19 110 15 322 111 574
261 212 126 320 188 450 260 58 32 130 73 160 91 30 18 64 33 75 33 11 0 55
-17 99 -37z m-270 -27 c-10 -8 -26 -14 -34 -15 -8 0 -4 6 10 14 34 19 48 20
24 1z m339 -72 c-74 -96 -237 -211 -528 -374 -49 -28 -128 -73 -175 -100 -226
-132 -494 -249 -610 -266 -42 -6 -38 3 5 10 40 8 206 71 275 105 113 57 537
295 735 413 135 80 266 189 302 250 10 17 21 25 26 20 5 -5 -7 -30 -30 -58z
m-387 45 c4 -7 3 -8 -4 -4 -7 4 -12 3 -12 -2 0 -5 -12 -14 -27 -21 l-28 -11
30 25 c35 29 32 28 41 13z m576 -60 c14 -14 24 -29 21 -32 -4 -3 -2 -6 3 -6
23 0 45 -26 38 -44 -5 -14 -9 -15 -16 -4 -7 9 -8 8 -4 -6 14 -43 -43 -325 -81
-400 -26 -52 -62 -95 -94 -111 -18 -10 -81 -19 -167 -26 -75 -5 -164 -14 -197
-20 -60 -10 -229 -58 -295 -83 -19 -8 -64 -25 -100 -39 -36 -14 -94 -37 -130
-50 -36 -14 -74 -28 -85 -32 -136 -53 -144 -45 -10 10 50 20 104 42 120 50
247 111 525 185 701 185 136 0 192 32 240 136 37 80 85 284 66 284 -4 0 -23
-31 -42 -70 -60 -123 -123 -167 -312 -215 -159 -40 -337 -102 -476 -166 -34
-16 -66 -29 -71 -29 -9 0 -138 -57 -194 -86 -16 -8 -36 -14 -45 -14 -9 0 -26
-7 -36 -15 -11 -8 -28 -15 -38 -15 -16 0 -65 -19 -110 -41 -10 -5 -23 -9 -30
-9 -15 0 27 22 100 49 28 12 52 17 52 13 0 -4 4 -2 8 4 4 5 34 21 67 34 33 13
69 29 80 36 40 25 403 173 495 202 52 17 153 47 224 67 159 44 199 70 249 156
27 47 67 172 67 209 0 18 3 20 13 11 8 -6 17 -8 20 -4 4 3 -2 12 -13 20 -11 8
-20 21 -20 29 0 8 -4 12 -10 9 -5 -3 -10 -1 -10 5 0 6 -4 9 -9 6 -7 -5 -21 14
-25 34 -1 3 -5 12 -10 20 -11 17 24 -10 66 -52z m-83 -1 c2 -23 -57 -116 -98
-156 -53 -51 -174 -121 -296 -172 -44 -18 -210 -98 -370 -177 -379 -188 -421
-207 -545 -249 -151 -51 -310 -59 -310 -15 0 15 12 17 98 18 175 2 358 75 752
299 470 266 603 356 678 456 l35 48 28 -22 c15 -12 28 -26 28 -30z m13 -67
c-62 -120 -145 -185 -351 -280 -202 -92 -266 -122 -356 -167 -77 -39 -204 -98
-420 -198 -27 -13 -61 -26 -75 -30 -24 -6 -24 -6 -5 10 11 8 25 13 32 11 6 -3
13 -2 15 2 4 9 637 323 768 381 197 86 290 147 334 217 15 24 32 44 37 44 5 0
8 3 7 8 -1 4 4 25 11 46 11 30 15 36 22 23 6 -10 0 -32 -19 -67z m44 -55 c-23
-99 -68 -187 -117 -228 -39 -34 -88 -52 -284 -107 -142 -40 -247 -78 -425
-156 -327 -142 -385 -166 -480 -199 -128 -43 -219 -59 -288 -51 -32 4 -63 8
-69 8 -7 1 -13 6 -13 12 0 7 31 10 93 8 160 -6 308 44 677 228 197 98 318 156
460 219 255 113 344 178 409 301 24 44 36 59 44 51 8 -8 6 -32 -7 -86z m-446
75 c-8 -5 -19 -10 -25 -10 -5 0 -3 5 5 10 8 5 20 10 25 10 6 0 3 -5 -5 -10z
m-50 -14 c-8 -7 -58 -30 -110 -50 -110 -44 -163 -67 -170 -76 -12 -17 -53 -31
-61 -23 -8 8 48 38 205 108 34 15 134 52 146 54 2 1 -2 -5 -10 -13z m641 -58
c40 -50 79 -106 79 -114 0 -3 9 -17 20 -31 23 -29 25 -42 8 -39 -23 3 -38 17
-32 28 4 6 3 8 -3 5 -5 -3 -22 18 -36 48 -15 29 -34 58 -42 65 -7 6 -12 17 -9
25 3 8 -1 12 -13 12 -12 -1 -19 6 -21 21 -5 33 11 27 49 -20z m-30 -40 c39
-46 118 -185 147 -258 40 -101 65 -218 66 -312 1 -43 4 -78 9 -78 4 0 7 7 7
16 0 8 5 12 10 9 13 -8 13 -3 0 31 -9 24 -9 25 5 14 18 -15 21 0 3 18 -13 13
-12 10 -23 107 -4 39 -12 76 -17 82 -6 7 -8 20 -4 28 3 9 2 14 -3 11 -12 -8
-23 56 -14 80 6 16 4 17 -9 6 -13 -11 -17 -8 -23 20 -4 18 -8 36 -9 40 -1 3
-4 10 -8 14 -13 13 -9 24 7 17 15 -5 51 -63 40 -63 -4 0 1 -10 9 -22 18 -25
21 -42 6 -33 -5 3 -10 1 -10 -4 0 -6 8 -11 18 -12 11 0 12 -2 4 -6 -10 -4 -9
-10 5 -25 14 -17 15 -22 4 -26 -10 -3 -10 -6 -1 -12 6 -4 12 -13 13 -21 2 -8
5 -18 9 -24 3 -5 5 -24 3 -42 -1 -19 2 -30 8 -26 6 4 8 -4 5 -20 -3 -15 -1
-24 3 -21 5 3 9 -4 9 -16 0 -13 -4 -19 -12 -14 -7 5 -8 3 -3 -6 12 -20 14
-160 2 -160 -5 0 -5 -5 2 -13 6 -8 9 -16 6 -18 -3 -4 -20 -92 -31 -163 -2 -16
-9 -35 -14 -41 -6 -7 -10 -17 -9 -21 5 -32 -2 -34 -83 -28 -108 8 -202 -11
-342 -71 -111 -47 -303 -140 -366 -177 -19 -11 -46 -24 -60 -29 l-25 -9 25 19
c13 11 28 17 32 15 4 -3 8 -1 8 4 0 5 21 19 48 31 26 12 61 30 77 39 58 34
291 142 350 162 109 39 308 58 289 29 -3 -5 0 -9 5 -9 6 0 11 7 11 15 0 8 4
15 10 15 22 0 3 26 -30 42 -47 23 -172 17 -260 -12 -36 -12 -72 -23 -80 -25
-15 -3 -84 -33 -195 -84 -33 -16 -64 -30 -70 -32 -5 -2 -68 -32 -138 -66 -70
-35 -132 -63 -138 -63 -5 0 -17 -4 -27 -9 -16 -8 -37 -17 -125 -55 -43 -18
-55 -20 -41 -7 5 5 43 23 84 39 41 17 147 65 235 108 88 43 162 78 165 79 3 0
20 9 38 18 17 10 32 14 32 10 0 -5 4 -3 8 3 20 31 277 121 373 131 63 6 179
-12 192 -30 6 -7 6 -5 3 7 -4 10 -1 25 5 32 9 11 9 14 0 14 -7 0 -9 5 -6 10 4
6 -10 27 -32 47 -21 20 -30 34 -20 30 9 -4 23 -10 31 -13 20 -8 10 28 -14 54
-10 11 -17 22 -14 24 2 3 -2 5 -8 5 -7 1 -38 10 -68 21 l-55 21 48 -6 c45 -6
63 6 35 23 -7 5 -8 3 -3 -6 6 -10 1 -11 -21 -6 -107 26 -223 15 -368 -34 -135
-45 -141 -48 -981 -455 -138 -67 -178 -91 -213 -129 -23 -25 -46 -46 -50 -46
-4 0 -17 15 -29 32 l-22 32 21 35 c64 108 103 132 293 181 210 54 344 104 680
255 83 37 217 90 298 117 126 41 160 48 230 49 45 1 95 -4 111 -10 31 -13 50
-6 26 9 -8 6 -11 10 -6 10 5 0 24 -11 43 -26 41 -31 44 -15 3 19 -80 67 -262
61 -480 -18 -54 -19 -399 -163 -505 -210 -122 -55 -257 -100 -429 -145 -66
-17 -138 -41 -160 -52 -53 -26 -113 -83 -137 -130 -40 -78 -36 -26 8 105 33
98 76 150 135 165 24 6 93 13 153 16 182 10 330 49 620 163 377 149 492 184
615 186 59 1 86 -3 125 -21 59 -27 106 -69 98 -88 -3 -8 0 -14 6 -14 22 0 10
35 -26 75 -36 38 -36 38 10 -5 50 -47 64 -42 21 9 -62 74 -177 108 -308 91
-118 -15 -224 -50 -606 -198 -135 -52 -196 -72 -335 -112 -16 -5 -77 -14 -135
-20 -284 -30 -314 -39 -361 -102 -32 -42 -66 -124 -75 -177 -4 -22 -10 -41
-14 -41 -20 0 -134 300 -119 314 2 3 25 0 49 -5 112 -26 299 23 690 178 302
121 410 149 623 163 195 12 233 31 292 149 31 62 69 206 80 299 4 34 9 62 12
62 3 0 13 -10 24 -22z m-96 -105 c-16 -87 -66 -220 -96 -256 -40 -49 -82 -65
-174 -68 -115 -3 -288 -33 -404 -69 -57 -17 -208 -73 -335 -124 -364 -146
-462 -173 -589 -163 -51 5 -75 11 -84 24 -19 25 -16 35 10 26 12 -4 67 -8 122
-7 149 0 236 29 720 237 187 80 328 129 555 192 140 38 225 106 261 208 7 20
15 37 17 37 2 0 1 -17 -3 -37z m-1552 -470 c-7 -2 -19 -2 -25 0 -7 3 -2 5 12
5 14 0 19 -2 13 -5z m253 -21 c-3 -5 -16 -12 -28 -15 -13 -3 -38 -10 -55 -15
-18 -6 -33 -7 -33 -3 0 5 21 14 48 21 26 7 51 17 56 21 12 11 20 4 12 -9z
m1521 -119 c28 -14 54 -32 57 -39 7 -19 -1 -18 -40 7 -103 63 -334 20 -609
-114 -253 -124 -764 -424 -865 -509 l-68 -57 -36 27 c-19 15 -35 32 -36 38 0
6 22 32 49 57 36 34 97 70 215 127 91 44 168 80 171 80 3 0 120 56 260 125
140 69 301 146 357 171 274 124 422 147 545 87z m-109 -30 c-10 -2 -28 -2 -40
0 -13 2 -5 4 17 4 22 1 32 -1 23 -4z m107 -13 c13 -5 14 -9 5 -9 -8 0 -24 4
-35 9 -13 5 -14 9 -5 9 8 0 24 -4 35 -9z m-1545 -14 c0 -2 -9 -6 -20 -9 -11
-3 -18 -1 -14 4 5 9 34 13 34 5z m1522 -6 c35 -10 98 -54 98 -68 -1 -27 -18
-31 -80 -21 -131 21 -294 -30 -638 -197 -248 -121 -376 -176 -502 -214 -79
-24 -164 -70 -143 -77 20 -7 147 24 262 63 56 20 227 94 380 165 319 151 446
198 547 206 84 7 144 -2 144 -21 0 -11 -15 -13 -63 -9 -114 10 -272 -41 -509
-161 -79 -40 -226 -116 -328 -168 -181 -92 -244 -120 -443 -192 l-99 -36 -39
22 c-21 12 -39 24 -39 27 0 19 164 129 370 250 435 254 735 400 895 434 40 9
151 7 187 -3z m47 -232 c-2 -34 -15 -43 -68 -45 -30 -2 -80 -10 -110 -19 -63
-17 -213 -76 -221 -85 -6 -8 -167 -89 -175 -89 -3 0 -11 -4 -18 -10 -32 -27
-88 -59 -85 -49 2 7 13 17 24 23 10 6 21 13 24 16 14 14 110 64 130 67 8 1 16
7 18 12 2 6 10 11 18 11 8 0 14 5 14 11 0 5 4 8 9 5 5 -4 11 -2 13 3 5 14 206
97 263 109 28 6 73 14 100 17 76 11 69 18 -10 12 -38 -3 -106 -17 -150 -31
-92 -29 -297 -129 -435 -212 -91 -54 -427 -250 -518 -301 -31 -17 -52 -23 -70
-18 -44 10 -112 37 -112 44 0 4 21 13 47 20 126 36 337 130 599 266 376 196
522 252 662 254 36 1 52 -3 51 -11z m-35 -77 c-5 -4 -49 -18 -99 -29 -95 -23
-289 -112 -405 -184 -36 -23 -163 -106 -283 -186 l-217 -144 -60 7 c-33 4 -60
10 -60 13 1 4 24 18 52 32 47 23 368 205 528 300 176 105 408 200 515 212 30
3 45 -7 29 -21z m-44 -78 c0 -5 -39 -52 -86 -106 -163 -187 -349 -296 -579
-340 -117 -23 -205 -30 -205 -17 0 5 4 10 10 10 5 0 89 53 187 118 280 186
406 257 553 308 97 35 120 40 120 27z m-280 -71 c0 -5 -17 -16 -37 -26 -21
-10 -38 -17 -38 -15 0 1 -37 -21 -82 -49 -46 -29 -83 -49 -83 -45 0 5 -4 4 -8
-2 -14 -19 -42 -37 -42 -27 0 11 97 75 205 133 73 40 85 45 85 31z m-730 -42
c-8 -5 -19 -10 -25 -10 -5 0 -3 5 5 10 8 5 20 10 25 10 6 0 3 -5 -5 -10z m270
-4 c0 -2 -18 -13 -40 -25 -22 -11 -40 -17 -40 -12 0 5 17 16 38 24 43 19 42
18 42 13z m-335 -21 c-16 -8 -37 -14 -45 -14 -8 0 1 7 20 14 46 18 64 17 25 0z
m459 -14 c3 -5 -3 -11 -15 -14 -16 -4 -18 -3 -8 9 13 16 16 17 23 5z m-219
-11 c-9 -15 -65 -42 -65 -32 0 5 15 16 33 25 39 19 40 19 32 7z m-85 -44 c-13
-13 -49 -28 -115 -50 -11 -3 12 9 50 28 80 40 85 41 65 22z m184 -21 c-10 -8
-26 -14 -34 -14 -9 0 -4 6 10 14 33 19 49 19 24 0z m135 -34 c-13 -11 -26 -17
-29 -14 -3 2 6 13 20 23 32 24 40 16 9 -9z m-195 6 c-5 -15 -67 -47 -87 -47
-7 1 7 10 30 20 23 11 45 25 48 30 9 15 15 12 9 -3z m-274 -17 c-8 -5 -19 -10
-25 -10 -5 0 -3 5 5 10 8 5 20 10 25 10 6 0 3 -5 -5 -10z m-40 -14 c0 -2 -7
-7 -16 -10 -8 -3 -12 -2 -9 4 6 10 25 14 25 6z m216 -28 c4 -6 3 -8 -3 -5 -5
4 -19 -2 -30 -12 -18 -17 -75 -51 -62 -37 7 7 83 65 86 66 1 0 5 -5 9 -12z
m-319 -14 c-3 -3 -12 -4 -19 -1 -8 3 -5 6 6 6 11 1 17 -2 13 -5z"/>
<path d="M1427 2249 c7 -7 15 -10 18 -7 3 3 -2 9 -12 12 -14 6 -15 5 -6 -5z"/>
<path d="M371 810 c14 -31 19 -36 19 -24 0 6 -7 19 -16 30 -14 18 -14 18 -3
-6z"/>
<path d="M490 621 c0 -6 4 -13 10 -16 6 -3 7 1 4 9 -7 18 -14 21 -14 7z"/>
<path d="M600 486 c0 -2 8 -10 18 -17 15 -13 16 -12 3 4 -13 16 -21 21 -21 13z"/>
<path d="M1765 2170 c-3 -6 1 -7 9 -4 18 7 21 14 7 14 -6 0 -13 -4 -16 -10z"/>
<path d="M2110 1910 c0 -5 5 -10 11 -10 5 0 7 5 4 10 -3 6 -8 10 -11 10 -2 0
-4 -4 -4 -10z"/>
<path d="M2130 2026 c0 -2 8 -10 18 -17 15 -13 16 -12 3 4 -13 16 -21 21 -21
13z"/>
</g>
</svg>
